<?xml version="1.0" encoding="UTF-8"?><svg id="_レイヤー_1" xmlns="http://www.w3.org/2000/svg" xmlns:xlink="http://www.w3.org/1999/xlink" viewBox="0 0 269.81 159.16"><defs><style>.cls-1{fill:#fff;}.cls-2{fill:none;}.cls-3{fill:url(#_新規パターン_3-2);}.cls-4{fill:#0096dc;}.cls-5{fill:#ffdc50;}.cls-6{fill:url(#_新規パターン_3);}.cls-7{fill:#323232;}</style><pattern id="_新規パターン_3" x="0" y="0" width="4.98" height="5.18" patternTransform="translate(3122.74 -2562.1) rotate(-45) scale(.65)" patternUnits="userSpaceOnUse" viewBox="0 0 4.98 5.18"><rect class="cls-2" width="4.98" height="5.18"/><rect class="cls-1" x="0" y="0" width="4.98" height="5.18"/><circle class="cls-4" cx="2.49" cy="2.59" r="1.06"/></pattern><pattern id="_新規パターン_3-2" patternTransform="translate(6144.31 -12484.18) rotate(-90) scale(1.07)" xlink:href="#_新規パターン_3"/></defs><path class="cls-5" d="M110.55,132.15s.02.05.03.07c0-.01-.01-.04-.03-.07Z"/><path class="cls-6" d="M86.65,131.8s.04-.1.06-.14c-.2-1.66,2.03-1.86,2.35-.26.12.05.23.09.35.14l-.3-1.56c-1.31-.16-1.18-2.66-1.63-3.69-.51-.59-1.03-1.19-1.54-1.79.35,4.73.69,9.45,1.04,14.18.05.62-.56,1.15-1.15,1.15-1.49-.07-1.13-1.89-1.28-2.92-.3-4.15-.61-8.29-.91-12.44-.05-.68.68-1.26,1.33-1.14-1.42-1.53-2.24-3.56-3.61-5.1-5.11-.59-10.07-2.56-14.6-5.04-1.3-.71-.14-2.7,1.16-1.99,3.54,1.95,7.3,3.55,11.26,4.37-.98-1.22-2.05-2.69-1.92-4.19-2.27-.74-4.46-1.73-6.47-3,.25,1.62-2.3,1.92-2.31.26.01-.61,0-1.22,0-1.83l-2.81,2.46c.64.32.81,1.33.26,1.82-4.16,3.62-8.73,6.72-12.94,10.27-3.88,3.49-8.3,7.24-10.04,12.32-1.79,7.29-.61,15,.86,22.23h30c-3.09-3.76-4.21-8.66-6.75-12.77-3.1-5.77-8.34-12-15.56-11.27-1.5,0-1.52-2.24,0-2.31,8.06-.79,14.12,6,17.6,12.5,2.5,4.01,3.52,8.85,6.58,12.51.38.43.37.94.15,1.34h19.85c-2.82-7.61-5.63-15.22-8.45-22.82-.45-.27-.74-.73-.58-1.31Z"/><path class="cls-4" d="M80,55.7c5.13-1.5,9.28,3.02,11.58,7.04,1.08-6.71-4.75-11.98-10.94-8.24-.64.42-1.26.1-1.53-.43-.13-.13-.25-.29-.31-.51-.46-1.74-2.11-2.15-3.75-2.09-4.8-.13-7.8,4.29-11.87,6.15-2.1,1.06-4.41,1.71-6.35,3.07-8.71,6.75-4.78,20.42,2.45,26.79-1.18-4.43,2.04-7.88,6.44-5.83.14-.19.34-.33.58-.37,2.31-.42,4.49-1.42,6.27-2.96,3.33-2.9,5.02-7.42,4.27-11.8-.35-2.43-1.76-4.52-2.27-6.89-.43-2.2.06-4.5,1.91-5.9.5-.38,1.29-.07,1.58.41.34.58.08,1.2-.41,1.58-.79.61-.97,1.78-.91,2.72.81-.58,1.64-1.08,2.51-1.33-.13-.55.08-1.18.77-1.39Z"/><path class="cls-1" d="M93.38,71.63c-2.67-4.83-5.62-15.17-12.76-13.7-.73.23-1.24-.25-1.38-.83-.88.25-1.7.75-2.51,1.33.07,1.2.57,2.36,1.03,3.45.96,2.29,1.6,4.59,1.53,7.09-.07,5.6-3.5,10.9-8.58,13.28.14,1.34.39,2.7,1.23,3.8.33.48.13,1.16-.3,1.49-.44.34-1.12.33-1.51-.09-1.13-1.22-2.12-2.57-2.95-4.01-.07.01-.15.03-.22.05-.77,1.47-2.34-.07-3.43-.11-.23-.04-.96,0-1.2.15-.58.26-.83.91-.92,1.51-.28,2.57,1.13,5.09,3.29,6.42,1.06.66,2.33,1.07,3.43.85.78-.19,1.6.46,1.44,1.29,1.12,3.85.95,8.04,1.21,12.03,2.26,1.69,4.92,2.88,7.61,3.72.21-.27.42-.53.63-.79-.13-1.42.04-3.08,1.32-3.94-.21-.98-.28-2.17.3-2.97-1.13-.49-3.71-.52-3.4-2.26.15-.56.84-1.03,1.42-.81.97.37,1.97.68,2.98.94-.83-1.63.05-3.41,1.49-4.31,1.85-1.28,3.8.06,5.34,1.16,1.63,1.01,3.28,1.98,4.94,2.94,3.26-1.34,3.6-5.11,3.98-8.17.58-2.77.44-5.59-.18-8.34-.51-2.34-1.39-4.63-2.41-6.79-.38-.71.04-1.68.9-1.72l-.71-2.31c-.5.34-1.22.33-1.59-.35ZM81.29,78.4c-1.49,0-1.48-2.31,0-2.31s1.48,2.31,0,2.31ZM91.42,71.63c1.49,0,1.48,2.31,0,2.31s-1.48-2.31,0-2.31ZM94.47,90.07c-.7,1.08-7.05,2.45-6.89.22.07-1.61,1.96-1,3.02-1.2.88-.12,1.75-.37,2.57-.71.94-.35,1.83.89,1.3,1.69ZM94.64,80.91c-.08.89-.57,1.64-.86,2.48-.02.06-.08.36-.04.1-.07,1.52-2.3,1.51-2.31,0,.14-1.05.71-1.87.92-2.75.03-.14-.05-.18-.17-.27-2.9-.95-4.57-3-5.9-5.66-.73-1.31,1.22-2.46,1.99-1.16.5.94,1.06,1.93,1.72,2.71,1.29,1.92,4.88,1.71,4.65,4.56Z"/><path class="cls-3" d="M128.29,155.17c-.75-4.27-1.5-8.53-2.25-12.8-.9-6.25-1.86-12.31-7.65-15.96-1.9-1.78-16.24-8.02-13.51-10.71l-.39-.32c-.19,2.43-.44,4.89-.71,7.29.29,1.57.56,3.13.84,4.7.06.32.01.64-.13.9l.41.95c1.23-.51,3.21-2.83,4.11-.78,1.24,3.19,2.67,6.32,3.98,9.48,2.28,5.18,4.38,10.46,6.84,15.55.76,1.28-1.23,2.44-1.99,1.16-2.05-4.15-3.74-8.49-5.62-12.73-3.01,3.05-7.12,6.09-11.63,5.39-1.56-.24-3.03-.84-4.48-1.45-.58-.24-.99-.75-.81-1.42.15-.55.84-1.05,1.42-.81,2.48,1.07,5.32,2.19,7.94.92,2.57-1.07,4.69-2.93,6.58-4.91-1.32-3.06-2.6-6.13-3.91-9.19-5.76,3.46-10.36,6.63-17.22,3.82,2.67,7.22,5.35,14.45,8.02,21.67h30.85c-.34-.13-.63-.39-.69-.75ZM108.64,137.47c1.49,0,1.48,2.31,0,2.31s-1.48-2.31,0-2.31Z"/><path class="cls-4" d="M65.73,94.41c.69.64,1.41,1.27,2.09,1.91-.08-.57-.18-1.13-.3-1.69-.6,0-1.2-.07-1.79-.22Z"/><path class="cls-5" d="M61.4,85.01s0,0,0,.01c0-.04.01-.13,0-.01Z"/><path class="cls-7" d="M92.45,78.07c-2.05-.69-3.21-2.57-4.18-4.43-.77-1.29-2.73-.15-1.99,1.16,1.33,2.67,3,4.71,5.9,5.66.13.09.21.14.17.29-.21.86-.78,1.68-.91,2.72,0,1.5,2.23,1.52,2.31,0,.92-2.07,1.89-4.14-1.29-5.42Z"/><path class="cls-7" d="M81.29,78.4c1.48,0,1.49-2.31,0-2.31s-1.49,2.31,0,2.31Z"/><path class="cls-7" d="M91.42,71.63c-1.48,0-1.49,2.31,0,2.31s1.49-2.31,0-2.31Z"/><path class="cls-7" d="M41.47,155.93c.01,1.74,2.38,1.67,2.34,0h-2.34Z"/><path class="cls-7" d="M65.68,109.29l-2.84,2.48,2.84-2.48c-.44-.24-.98-.15-1.37.19-7.6,6.54-16.69,11.74-22.17,20.41-4.1,7.15-2.05,18.24-.67,26.04h2.34c-1.47-7.23-2.65-14.95-.86-22.23,1.74-5.07,6.16-8.83,10.04-12.32,4.22-3.55,8.79-6.65,12.94-10.26.56-.48.38-1.5-.26-1.82Z"/><path class="cls-7" d="M103.85,122c.23-2.2.47-4.41.64-6.62l-.53-.43.53.43c.95-7.81-1.38-6.1-1.89-11.88-.14-2.1,1.44-3.48,1.61-5.48.55-3.17-2.92-4.37-5.2-2.66.78-4.03,1.55-8.1.59-12.18-.4-2.87-1.59-5.73-2.82-8.34-.19-.4-.66-.59-1.09-.56l1.55,5.04-1.55-5.04c-.86.04-1.28,1-.9,1.72,1.03,2.16,1.91,4.45,2.41,6.79.63,2.75.77,5.57.18,8.34-.37,3.06-.72,6.83-3.98,8.17-1.66-.96-3.31-1.93-4.94-2.94-1.54-1.1-3.49-2.44-5.34-1.16-1.44.9-2.33,2.68-1.49,4.31-1.01-.26-2.01-.57-2.98-.94-.58-.22-1.26.24-1.42.81-.31,1.74,2.27,1.76,3.4,2.26-.58.8-.51,1.98-.3,2.97-1.28.86-1.45,2.52-1.32,3.94-.21.26-.43.52-.63.79-2.69-.84-5.35-2.03-7.61-3.72-.26-3.99-.09-8.18-1.21-12.03.17-.83-.65-1.48-1.44-1.29-1.1.23-2.37-.18-3.43-.85-2.16-1.32-3.57-3.85-3.29-6.42.09-.59.34-1.24.92-1.51.24-.16.97-.19,1.2-.15,1.09.04,2.66,1.58,3.43.11.07-.01.15-.03.22-.05.83,1.44,1.83,2.79,2.95,4.01.39.42,1.08.43,1.51.09.43-.33.62-1.01.3-1.49-.84-1.1-1.09-2.46-1.23-3.8,5.08-2.37,8.51-7.67,8.58-13.28.07-2.51-.57-4.8-1.53-7.09-.46-1.1-.96-2.25-1.03-3.45-.3.21-.59.43-.88.65.29-.22.59-.44.88-.65-.06-.93.12-2.1.91-2.72,1.27-.82.15-2.74-1.16-1.99-1.85,1.4-2.33,3.69-1.91,5.9.51,2.38,1.92,4.47,2.27,6.89.75,4.38-.93,8.9-4.27,11.8-1.78,1.54-3.96,2.54-6.27,2.96-.24.04-.43.18-.58.37-4.4-2.05-7.61,1.41-6.44,5.83-7.23-6.37-11.16-20.05-2.45-26.79,1.94-1.36,4.25-2.01,6.35-3.07,4.06-1.85,7.07-6.28,11.87-6.15,1.64-.05,3.3.35,3.75,2.09.07.22.18.38.31.51.28.53.89.86,1.54.43,6.2-3.73,12.02,1.54,10.94,8.24-2.3-4.02-6.45-8.55-11.58-7.04-.69.21-.9.85-.77,1.39.81-.23,1.67-.24,2.6.14-.93-.37-1.79-.37-2.6-.14.78,2.59,3.95-2.49,9.28,5.12,2.06,2.92,3.19,6.28,4.87,9.42.37.69,1.09.69,1.59.35l-.67-2.19.67,2.19c.46-.31.74-.89.4-1.52-1.02-1.9-1.8-3.93-2.77-5.86.69.08,1.21-.49,1.25-1.14.15-2.11.25-4.33-.5-6.35-1.73-5.09-8-7.65-12.78-5.22-1.9-3.55-7.02-3.18-10.21-1.72-3.33,1.7-5.94,4.59-9.46,5.97-16.99,5.21-12.97,27.57-.18,35.2,1.45,3.67,4.92,5.74,7.46,8.57.18,2.21.23,4.48.31,6.68,0,.08,0,.16,0,.23l1.21-1.06-1.21,1.06c0,.61.01,1.22,0,1.83,0,1.66,2.56,1.36,2.31-.26,2.01,1.27,4.21,2.26,6.47,3-.13,1.5.94,2.97,1.92,4.19-3.97-.82-7.73-2.42-11.26-4.37-1.3-.71-2.47,1.28-1.16,1.99,4.52,2.48,9.48,4.45,14.6,5.04,1.37,1.54,2.19,3.57,3.61,5.1-.64-.12-1.38.45-1.33,1.14.3,4.15.61,8.29.91,12.44.16,1.03-.21,2.85,1.28,2.92.59,0,1.2-.53,1.15-1.15-.35-4.73-.69-9.45-1.04-14.18.51.6,1.02,1.19,1.54,1.79.45,1.03.31,3.53,1.63,3.69l-.56-2.92.56,2.92c.74.09,1.54-.58,1.31-1.43-.41-1.24-.41-2.66-1.18-3.74-1.12-1.31-2.27-2.59-3.35-3.94-1.09-1.9-2.33-3.71-3.8-5.35-.95-1.2-2.12-2.38-2.54-3.89.5-.76.91-1.27,1.45-1.91.46-.57.3-1.16.29-1.84,0-.34,0-.62.08-.92.06-.18.11-.38.29-.48,0,.02-.09.1.02,0,2.05-.33.6-2.29.81-3.53.34-.51,1.04-.69,1.46-1.13,1.01-1.1-.14-2.53-.34-3.75,0,0,0,.01-.01.02,0,0,0-.02,0-.03,0-.01,0-.02,0-.03,0,0,0,0,0-.01,0-.02,0-.03-.02-.05,0,0,.02,0,.03.03.89-1.61,1.78-1,2.94-.1,2.33,1.48,4.72,2.86,7.11,4.24,1.72,2.19,2.75,4.97,4.7,6.95.55.32,1.28.14,1.6-.41.74-1.19-2.11-4.16-2.72-5.39.21-1.23.45-2.45.81-3.64.12-.4.18-.41.47-.59.8-.38,1.24-1.2,1.78-1.79.42-.29,1.12-.57,1.58-.24,0,0,0,0,0,0,0,0,0,0,0,0,.19.54-.05,1.43-.25,1.87-2.83,4.58-.61,7.71.72,12.11.1,4.04-.68,8.06-.84,12.07.29,1.64.59,3.27.88,4.91.18.95,1.68,1.14,2.09.28l-1.27-2.92,1.27,2.92c.14-.26.19-.58.13-.9-.28-1.57-.56-3.13-.84-4.7.08-.16.05-.5.07-.68ZM61.4,85.01c.01-.12,0-.03,0,.01,0,0,0,0,0-.01ZM66.12,94.77c-.13-.12-.26-.24-.39-.36.58.15,1.18.23,1.79.22.12.56.22,1.12.3,1.69-.56-.52-1.13-1.04-1.7-1.55ZM97.89,108.47s.03.07.05.09c-.02-.02-.03-.07-.05-.09,0,0,0,0,0,0Z"/><path class="cls-7" d="M97.89,108.48s.03.07.05.09c-.02-.02-.04-.05-.05-.09Z"/><path class="cls-7" d="M93.17,88.38c-1.02.42-2.11.72-3.22.77-.97.02-2.31-.23-2.37,1.14-.16,2.23,6.19.87,6.89-.22.53-.8-.36-2.04-1.3-1.69Z"/><path class="cls-1" d="M104.49,128.27c-.41.85-1.91.68-2.09-.28-.29-1.64-.59-3.27-.88-4.91.16-4.01.95-8.03.84-12.07-1.33-4.39-3.55-7.54-.72-12.11.19-.45.43-1.33.25-1.87,0,0,0,0,0,0,0,0,0,0,0,0-.46-.34-1.16-.06-1.58.24-.55.59-.99,1.42-1.78,1.79-.29.18-.35.19-.47.59-.36,1.19-.6,2.42-.81,3.64.62,1.23,3.47,4.21,2.72,5.39-.32.55-1.05.73-1.6.41-1.95-1.98-2.98-4.76-4.7-6.95-2.39-1.38-4.78-2.76-7.11-4.24-1.16-.9-2.06-1.5-2.94.1,0,.02,0,.05,0,.07.2,1.21,1.35,2.65.34,3.75-.43.44-1.12.62-1.46,1.13-.21,1.23,1.24,3.2-.81,3.53-.11.11-.03.03-.02,0-.41.33-.36.9-.37,1.4.01.68.18,1.27-.29,1.84-.54.64-.95,1.16-1.45,1.91.42,1.51,1.59,2.69,2.54,3.89,1.47,1.64,2.71,3.45,3.8,5.35,1.08,1.34,2.23,2.63,3.35,3.94.77,1.08.77,2.5,1.18,3.74.23.84-.57,1.52-1.31,1.43l.3,1.56c6.57,2.95,9.78,1.1,15.5-2.32l-.41-.95Z"/><path class="cls-1" d="M97.89,108.47s.03.07.05.09c-.02-.02-.03-.07-.05-.09Z"/><path class="cls-1" d="M83.61,98.02s0,0,0,.01c0,0,0,.02,0,.03,0-.01,0-.03,0-.04Z"/><path class="cls-1" d="M83.6,98.09s0-.01.01-.02c0,0,0,0,0,0,0,.01,0,.02,0,.03Z"/><path class="cls-1" d="M83.59,97.97s.01.03.02.05c0,0,0-.01,0-.02,0-.02-.02-.04-.03-.03Z"/><path class="cls-7" d="M83.62,98s0,.01,0,.02c0,.02,0,.03,0,.04,0,0,0,0,0,0,.01-.02.01-.05,0-.07Z"/><path class="cls-7" d="M130.51,154.56c-.68-3.85-1.35-7.71-2.03-11.56-.61-3.5-1.01-7.16-2.28-10.5-1.99-5.64-7.32-8.77-12.32-11.46-2.67-1.5-5.35-3.05-7.48-5.29-.49-.51-1.1-.41-1.51-.05l2.26,1.82-2.26-1.82c-2.74,2.68,11.63,8.95,13.51,10.71,5.78,3.65,6.75,9.71,7.65,15.96.75,4.27,1.5,8.53,2.25,12.8.06.36.35.63.69.75h.86c.55-.22.77-.8.67-1.37Z"/><path class="cls-7" d="M128.98,155.93c.28.1.59.13.86,0h-.86Z"/><path class="cls-7" d="M98.13,155.93h-2.45c.61,1.09.6,3.53,2.32,3.25,1.56-.53.46-2.21.13-3.25Z"/><path class="cls-7" d="M119.83,153.46c-3.3-7-6.21-14.2-9.28-21.3.01.03.02.05.03.07-.52-1.26-1.11-2.5-1.56-3.79-.24-.67-1.03-1.11-1.69-.69-.8.5-1.6,1-2.42,1.47l.77,1.77-.77-1.77c-5.72,3.43-8.93,5.27-15.5,2.32l.6,3.11-.6-3.11c-.12-.05-.23-.09-.35-.14-.32-1.61-2.54-1.4-2.35.26-.27.58.03,1.17.52,1.45,2.82,7.61,5.63,15.22,8.45,22.82h2.45c-2.67-7.22-5.35-14.45-8.02-21.67,6.87,2.82,11.46-.36,17.22-3.82,1.31,3.06,2.59,6.13,3.91,9.19-1.9,1.98-4.01,3.84-6.58,4.91-2.62,1.26-5.46.15-7.94-.92-.57-.24-1.27.26-1.42.81-.18.67.23,1.18.81,1.42,1.45.61,2.92,1.21,4.48,1.45,4.52.7,8.62-2.34,11.63-5.39,1.89,4.23,3.57,8.58,5.62,12.73.76,1.28,2.75.12,1.99-1.16Z"/><path class="cls-7" d="M75.68,154.58c-1.56-1.75-2.52-3.93-3.43-6.06-2.94-6.54-6.4-13.64-12.92-17.26-1.4-.97-8.79-3.22-8.98-.53,0,.57.53,1.22,1.15,1.15,7.22-.73,12.46,5.5,15.56,11.27,2.53,4.12,3.65,9.01,6.75,12.77h2.02c.22-.4.24-.91-.15-1.34Z"/><path class="cls-7" d="M73.81,155.93c.51.88,1.61.82,2.02,0h-2.02Z"/><path class="cls-7" d="M108.64,137.47c-1.48,0-1.49,2.31,0,2.31s1.49-2.31,0-2.31Z"/><path class="cls-5" d="M222.33,80.34s.02-.01.04-.02c0,0,0,0,0,0-.01,0-.03.02-.04.02Z"/><path class="cls-5" d="M222.39,80.3s0,0,0,0c0,0,0,0-.01.01,0,0,.01,0,.02-.01,0,0,0,0,0,0Z"/><path class="cls-1" d="M222.36,90.23c-.07-.15-.13-.29-.19-.44-.1.15-.2.3-.31.44.27.4.54.8.79,1.22.36.12.7.28,1.01.49-.56-.44-1-1.06-1.3-1.71Z"/><path class="cls-5" d="M190.55,83.88s.03.04,0,0h0Z"/><path class="cls-5" d="M222.37,80.33s.01,0,.02-.02c0,0-.01,0-.02.01,0,0,0,0,0,0Z"/><path class="cls-5" d="M227.46,82.09c-.16-.04-.11.02,0,0h0Z"/><path class="cls-5" d="M220.99,84.09s-.06-.01-.08-.02c.02,0,.04.01.08.02Z"/><polygon class="cls-5" points="222.4 80.3 222.39 80.31 222.39 80.31 222.4 80.3 222.4 80.3"/><path class="cls-5" d="M222.31,80.35s.02-.02.04-.03c-.05,0-.1.04-.04.03Z"/><path class="cls-5" d="M222.38,80.34s-.05.08-.04.1c0,.01.02-.04.04-.1Z"/><path class="cls-5" d="M194.4,74.53s0,.02,0,.04c0,0,0-.03,0-.04Z"/><path class="cls-5" d="M225.45,90.13s-.05.02-.1.04c.04-.01.09-.02.1-.04Z"/><path class="cls-5" d="M218.33,67.48c-.16-.11-.05,0,0,0h0Z"/><path class="cls-5" d="M232.48,90.66s0,0,0,0c-.01,0-.03,0-.05-.02.02,0,.03.01.05.02Z"/><path class="cls-1" d="M230.02,89.84c-.2-2.12,0-4.25-.07-6.38-.77-.49-1.64-1.08-2.48-1.37-1.25.18-.43,1.65-.36,2.44.39,2.17.53,4.4,1.25,6.5.12.3.22.65.53.76-.09-.05-.26-.17-.04-.03.1.03.22.05.32.08-.39-.12.1.02.18-.01.65-.26.28-1.33.7-1.78,0-.08-.02-.16-.02-.23Z"/><path class="cls-1" d="M225.16,90.19c.19.03.36-.13.51-.22-.36-1.66-.51-3.37-.83-5.03-.21-1.13-.61-2.28-.13-3.39-.12-.27-.43-.54-.61-.69-.49-.34-1.07-.7-1.7-.56-.25.69-.18.92-.15,1.94,1.29.96,1.49,2.81,1.23,4.34.46,1.22.63,2.75,1.68,3.62Z"/><path class="cls-5" d="M224.18,80.92s.02.01.03.02c-.01,0-.03-.02-.05-.03,0,0,0,0,.02.01Z"/><path class="cls-5" d="M194.14,75.35s.03-.07,0,0h0Z"/><path class="cls-5" d="M224.11,80.86s.03.03.06.04c-.03-.02-.05-.04-.06-.04Z"/><path class="cls-5" d="M194.4,74.53c0-.05,0-.09,0-.1,0,.04,0,.07,0,.1Z"/><polygon class="cls-5" points="232.49 90.66 232.49 90.66 232.49 90.66 232.49 90.66 232.49 90.66"/><path class="cls-5" d="M232.5,90.71s.02.06.03.09c-.01-.04-.02-.06-.02-.08,0,0,0,0,0,0Z"/><path class="cls-1" d="M236.19,84.49c-.82-1.55-1.98-3.1-3.68-1.48,0,.28-.1.56-.26.79.14,2.27-.27,4.64.24,6.87,0,0,0,0,0,0,0-.01,0-.01,0,0,.02,0,.05.02,0,0,0,0,0,0,0,0,2.17,1.06,1.79-3.88,1.91-5.14,0-1.07,1.18-1.36,1.85-.9-.02-.05-.05-.09-.07-.14Z"/><path class="cls-5" d="M233.73,82.29s-.02,0,0,0h0Z"/><path class="cls-5" d="M194.37,85.52s-.01.01-.02.02c.01,0,.02-.01.02-.02Z"/><path class="cls-5" d="M197.77,105.83s-.02-.02-.02-.03c0,.01.02.02.02.03Z"/><path class="cls-1" d="M185.82,101.68c-4.03-1.97-7.86-4.37-11.37-7.15-.03.17-.07.34-.1.51,3.38,4.62,6.46,9.45,9.32,14.41.13-1.03,1.4-1.07,2.03-1.69,1.64-1.29,2.92-2.9,4.49-4.28-1.5-.48-2.96-1.11-4.37-1.8Z"/><path class="cls-5" d="M197.81,105.89s-.02-.02-.05-.06c.01.02.03.04.05.06Z"/><path class="cls-4" d="M200.02,148.6c-.63.17-1.21-.22-1.42-.81-6.23-17.64-14.37-34.73-25.14-50.06-.9,1.84-2.29,3.46-3.65,5,.4,2.2.79,4.4,1.19,6.59.11.62-.16,1.24-.81,1.42-.56.15-1.31-.19-1.42-.81-.38-2.1-.76-4.2-1.14-6.3-.09-.07-.17-.15-.23-.24-5.04,5.71-12.54,8.75-18.3,13.6-3.35,2.74-4.79,4.46-4.77,8.94-.5,9.79,0,19.59.33,29.37h15.88c-.78-5.23-1-10.58-1.37-15.86.42-7.37-3.32-14.19-8.81-18.9-1.11-.99.53-2.62,1.63-1.63,4.95,4.41,8.91,10.41,9.35,17.17.18,2.64.24,5.28.43,7.92.14,3.76.88,7.58.84,11.3h36.02c-.34-.05-.66-.26-.89-.56-2.94-3.84-5.89-7.69-8.83-11.53-6.47-8.52-13.07-16.95-19.51-25.49-2.05-3.09.66-4.49,3.17-5.65,2.06-1.24,3.67-3.14,4.65-5.33.78-1.28,2.69-.19,1.99,1.16-3.24,7.25-9.55,6.59-7.88,8.57,9.42,12.4,18.95,24.73,28.4,37.11.47.63-.09,1.66-.83,1.72h3.09c-.73-2.24-1.2-4.51-1.89-6.74-.02,0-.05.02-.07.03Z"/><path class="cls-1" d="M200.79,99.02l-.36-.11.36.11c.06-.04.13-.07.2-.1l-2.46-2.91c-.12,2.06-1.04,4.12-2.53,5.56,1.44.47,2.58,1.57,3.5,2.74.23-1.09.57-2.13.73-3.23.12-.72-.23-1.63.56-2.04Z"/><path class="cls-1" d="M239.8,105.41c-1.71.52-2.03-3.21-2.61-4.35-1.87-4.27.28-8.78.15-13.25-.14-.74-.35-1.46-.63-2.16.12,3.3-.48,8.92-5.17,7.13-1.03,2.13-4.44,1.58-5.19-.56-.74.39-1.71.36-2.41-.08,1.11.85,4.32,3.6,2.53,4.92-.51.33-1.3.12-1.58-.41-.61-1.22-1.58-2.23-2.74-2.93-.61-.19-1.18-.43-1.46-1.04-.58-1.1-2.62-3-.68-3.83.89-1.28,1.79-3.32.87-4.78-1.05.37-1.44,1.52-1.97,2.4-.76,1.3-1.69,2.58-2.1,4.04-.3,1.03-.62,1.68-.07,2.64,1.66,3.04,4.2,5.45,6.96,7.54,1.93,1.6,2.93,3.83,3.95,6.05.45.84-.23,1.92-1.22,1.7.07.88.13,1.76.22,2.66,6.1,4.63,10.66-.08,13.32-5.75-.05.02-.1.05-.16.06Z"/><path class="cls-4" d="M252.97,144.45c-.23-2.69-1.21-5.45-2.07-8.03-3.2-9.54-6.39-19.08-9.64-28.6-2.79,5.36-7.96,9.6-14.03,6.31,1.89,7.65,3.77,15.29,5.66,22.94.36,1.44-1.87,2.05-2.22.61-2.02-8.2-4.05-16.39-6.07-24.59-.8-1.07-1.33-2.32-1.94-3.47-.41.43-1.1.6-1.64.07-2.22-2.13-4.91-3.77-7.69-5.07-3.14-1.37-6.42-2.38-9.62-3.59-.58-.21-.97-.76-.81-1.4l-.48-.14c.38,1.1.02,2.32-.22,3.42l.21,1.66c.58-.23,1.31-.05,1.49.73,2.08,9.83,2.47,19.95,2.33,29.97-.11,6.21-.48,12.43-1.2,18.6-.07.61-.46,1.14-1.13,1.15v.28s2,0,2,0c-.3-.25-.48-.64-.34-1.13.95-3.31,1.82-6.63,2.61-9.98,1.94-8.24,3.44-16.61,4.04-25.06-.04-.44.24-1.06-.11-1.39.03.01.05.02.06.03,0,0,0,0,0,0,0,0,0,0,0,0,.08.04-.26-.13-.31-.15-1.3-.44-3.28-.71-4.77-1.19-1.43-.45-.78-2.71.65-2.22-.84-2.12-2.23-4.19-2.87-6.42-.18-.62.22-1.23.81-1.42.6-.19,1.25.23,1.42.81.75,2.64,2.65,4.95,3.23,7.67,2.28.36,4.75,1.29,4.21,4.09-.16,2.4-.4,4.79-.71,7.17-1.39,9.83-3.18,19.82-6.35,29.2h13.95c.02-.52.04-1.05.07-1.57-.61-.05-1.01-.55-1.06-1.14-.12-1.49-.24-2.98-.36-4.47-.75-11.03-2.05-22.1-2.31-33.14.34-1.38,2.4-.87,2.25.44.32,8,1.09,15.99,1.68,23.98l.55.43c.06-.97,1.28-1.37,1.95-.71.39.34.78.69,1.17,1.03,2.79,2.46,5.58,4.92,8.36,7.38.54.48.39,1.44-.2,1.79l2.35,1.75c.48-.53,1.26-.41,1.74.05,1.05.76,2.12,1.31,3.33,1.65,5.25,1.54,12.91-2.17,12.04-8.33Z"/><path class="cls-1" d="M203.87,155.04c-.57,0-1.23-.53-1.15-1.15.39-3.31.67-6.64.87-9.97.65-12.66.67-25.52-1.91-37.98-.15-.66.24-1.15.74-1.34l-.21-1.66c-.21.88-.48,1.75-.58,2.65-.03.31-.03.63,0,.94.07.87-1.1,1.47-1.77.98-1.05.26-1.49-.94-2.03-1.6-.63-.8-1.38-1.66-2.36-2.07-.41-.23-1.25-.2-1.61-.63-.14.09-.29.17-.44.21,0,.12-.01.24-.05.36,4.65,9.93,6.82,21.17,8.44,32.02-.01,1.5-2.23,1.52-2.31,0-1.37-10.44-4-20.71-7.76-30.53-1.88,1.39-4.93,5.91-7.4,5.36,6.59,11.66,12.07,23.95,16.5,36.58.2.57-.2,1.2-.73,1.39.7,2.23,1.16,4.5,1.89,6.74h1.91v-.28s0,0-.02,0Z"/><path class="cls-1" d="M219.28,82.29c.21-.13.43-.24.65-.31-.07-1.42.15-3.37,1.73-3.85v-.12c-2.31.98-1.73-3.72-2.08-5.03-.31-1.78.12-4.33-1.25-5.5,0,0,0,0,0,0,0,0,0,0,0,0,.01,0,.02.02.03.02-.01,0-.02-.01-.03-.02-1.12.2-.66,2.05-.67,2.88.25,3.93.4,7.86.66,11.78.05.81-.93,1.41-1.63,1.05v2.48c.7-1.24,1.35-2.6,2.58-3.38Z"/><path class="cls-1" d="M174.96,88.05c.01,1.22-.03,2.46-.14,3.7,2.44,2.36,5.4,4.12,8.29,5.87,2.86,1.7,5.84,3.19,9.04,4.05.38-.53,1.06-.72,1.55-1.14.44-.37.95-.79,1.28-1.25-.03.04-.06.08-.09.11.32-.45.66-.94.85-1.44-.06.14-.07.17-.04.09.3-.73.48-1.49.6-2.27.06-.35.32-.6.63-.73,0-.08,0-.15,0-.22-7.08,2.8-15.31-1.06-20.23-6.26-1.02-1.08.61-2.71,1.63-1.63,8.58,9.17,23.79,9.74,24.12-5.7-.04-1.69-.24-3.57-.45-5.21-.39-2.64-1.21-5.2-1.77-7.8-.16-.76.36-1.28.95-1.41-.17-.51-.34-1.02-.54-1.51-.47.56-1.42.72-1.85-.11-1.15-2.22-2.45-4.38-4.14-6.22-1.7-1.85-3.71-3.32-5.87-4.6-.6-.35-.66-.97-.43-1.46-.85-.26-1.71-.37-2.56-.42-.92,7.69-3.16,16.18-9.8,20.89-.37.26-.86.19-1.22-.05-.11.56.03,1.22.03,1.73,0-.51-.14-1.17-.03-1.73-.73-.45-.62-1.5.06-1.94,1.24-.87,2.35-1.95,3.27-3.15,3.46-4.52,4.65-10.41,5.47-15.91.24-1.19,2.18-1.05,2.23.16.85.04,1.71.15,2.56.42.26-.56.91-.94,1.59-.54,2.31,1.36,4.51,2.97,6.33,4.96,1.83,1.99,3.27,4.29,4.5,6.69.25.49.14.95-.14,1.28.2.49.37,1,.54,1.51.16-.04.33-.04.49-.01.22-1.45.65-3.01.43-4.47-.76.65-1.85.07-1.89-.87-.18-1.7-.39-3.41-.95-5.03-.41-1.16-1.1-2.4-1.77-3.59-2.7-4.44-8-7.93-13.34-7.23-.87.19-1.72-.59-1.39-1.49-.55-.03-1.11-.05-1.68-.02.24.67-.11,1.59-1.04,1.64-2.98.15-5.85,1.13-8.38,2.71-6.87,4.22-10.63,12.62-9.24,20.55.35,2.5,1.24,4.78,2.93,6.6.33-2.11,2.3-3.88,4.49-3.41-.04-.43.19-.84.56-1.12,2.6-2.71,3.77-7.93,4.65-11.54.12-.61.85-.96,1.42-.81.63.17.93.81.81,1.42-.9,3.97-2.04,8.1-4.32,11.52.43.06.85.4.94.83.19,1.21.51,2.43.99,3.54-.17-.39.08.19.13.27.65,1.14-.88,2.32-1.81,1.4-.91-.87-1.64-1.9-2.17-3.04-.53.28-1.05-.14-1.58-.21-.26-.03-.52-.02-.76.06-.41.14-.7.55-.9.93-1.15,3.13,1.88,5.91,4.55,6.98,1.04.33,1.14,1.8.08,2.21l.29,3.08c.33-1.12,2.24-1,2.25.35ZM195.22,65.11c1.49,0,1.48,2.31,0,2.31s-1.48-2.31,0-2.31ZM190.65,68.14c.49-.29,1.33-.16,1.58.41.41,1.09,1.32,2.36,1.99,2.85,3.05,1.3,2.99,3.75,1.33,6.26-.33.53-1.03.74-1.58.41-1.47-.99.45-2.43.43-3.65,0-.02,0-.03,0-.04-.06-.12-.14-.24-.21-.35-.01-.01-.04-.04-.04-.04-1.49-.36-5.42-4.6-3.5-5.85ZM187.32,82.04c.36-.84,1.41-.65,2.15-.75,2.57-.2,5.14-.4,7.72-.6.81-.06,1.24.78,1.11,1.46-.39,3.23-2.86,7.41-6.62,5.62-1.96-.86-3.36-2.82-4.31-4.66-.17-.33-.22-.74-.04-1.07ZM184.52,68.7c1.49,0,1.48,2.31,0,2.31s-1.48-2.31,0-2.31Z"/><path class="cls-5" d="M195.34,103.75s.02.02.04.02c-.01,0-.03-.01-.04-.02Z"/><path class="cls-5" d="M195.39,103.78s0,0,0,0c.02.01.05.03.08.04-.01-.01-.03-.03-.07-.04Z"/><path class="cls-5" d="M193.15,85.86s.05,0,.08,0c-.03,0-.05,0-.08,0Z"/><path class="cls-5" d="M194.29,85.6s.04-.04.06-.06c-.02.02-.03.03-.06.06Z"/><path class="cls-5" d="M219.98,115.6s0-.03,0-.05c0,.02,0,.03,0,.05Z"/><path class="cls-5" d="M193.27,85.87s-.03,0-.04,0c.05,0,.06,0,.04,0Z"/><path class="cls-1" d="M190.3,83.53c.8,1.06,1.87,2.36,3.31,2.34.25-.08.57-.16.76-.35.7-.62,1.07-1.53,1.32-2.41-1.8.14-3.6.28-5.39.42Z"/><path class="cls-7" d="M228.85,91.78c-.17-.12-.11-.04,0,0h0Z"/><path class="cls-7" d="M224.18,80.92s-.05-.04-.07-.06c-.03-.02.02.03.07.06Z"/><path class="cls-7" d="M222.26,80.88s0,0,0,0c0-.02,0-.04,0-.06,0,.02,0,.04,0,.06Z"/><path class="cls-7" d="M222.27,80.83s0-.03,0-.05c0-.06,0-.01,0,.05Z"/><path class="cls-7" d="M222.37,80.32s0,0,0,0c0,0,.01,0,.02-.01,0,0-.01,0-.02.01Z"/><path class="cls-7" d="M222.31,76.98c-.27-2.41-.52-4.83-.69-7.26-.07-1.08-.3-2.06-.9-2.98-1.38-2.48-4.81-1.79-5.25.97-.35,2.32.11,4.66.14,6.99.12,2.48.25,4.96.41,7.44.03.46.29.86.68,1.05v-3.48,3.48c.7.36,1.68-.24,1.63-1.05-.26-3.92-.41-7.86-.66-11.78,0-.84-.45-2.68.67-2.88.01,0,.02.01.03.02,0,0-.02-.01-.03-.02,0,0,0,0,0,0,0,0,0,0,0,0,1.37,1.17.94,3.72,1.25,5.5.35,1.31-.24,6,2.07,5.03l-.06-2.22.06,2.22c.39-.19.7-.58.65-1.02ZM218.33,67.48s-.16-.11,0,0h0Z"/><path class="cls-7" d="M222.64,108.06c-3.61-3.48-8.23-5.72-12.94-7.3-1.79-.65-3.59-1.3-5.38-1.95-.59-.21-1.29.25-1.42.83l3.03.88-3.03-.88c-.16.63.23,1.19.81,1.4,3.2,1.21,6.48,2.22,9.62,3.59,2.78,1.29,5.47,2.94,7.69,5.07.55.52,1.24.36,1.64-.07-.56-1.06-1.2-2.03-2.21-2.7,1.01.67,1.64,1.65,2.21,2.7.39-.41.51-1.06-.01-1.56Z"/><path class="cls-7" d="M255.26,144.2c-.38-4.06-1.98-7.94-3.27-11.78-1.59-4.74-3.18-9.47-4.78-14.21-1.54-4.56-3.07-9.12-4.63-13.67-.26-.77-1.42-1.17-1.96-.5-.64-1.93-1.33-3.86-1.89-5.82-.17-3.48,1.07-6.99.91-10.5-.4-4.15-4.24-10.57-8.74-6.4-1.32-.78-2.84-2-4.45-1.35-1.11-1.38-3.01-2.44-4.79-1.86l.06,1.95-.06-1.95c-1.58.49-1.8,2.43-1.73,3.85-1.63.59-2.43,2.26-3.23,3.7v2.84-2.84c-1.52,2.56-3.66,5.86-1.85,8.79,1.34,2.23,2.93,4.22,4.88,5.94,1.26,1.11,2.75,2.01,3.76,3.37.93,1.24,1.52,2.71,2.16,4.11.14.3.44.48.77.54-.11-1.39-.22-2.79-.44-4.29.21,1.5.33,2.9.44,4.29.99.21,1.68-.86,1.22-1.7-1.02-2.22-2.02-4.45-3.95-6.05-2.75-2.09-5.29-4.5-6.96-7.54-.55-.96-.22-1.6.07-2.64.42-1.46,1.34-2.73,2.1-4.04.53-.88.92-2.03,1.97-2.4.92,1.46.02,3.5-.87,4.78-1.93.83.1,2.73.68,3.83.28.62.85.85,1.46,1.04,1.16.7,2.13,1.71,2.74,2.93.28.54,1.07.74,1.58.41,1.78-1.32-1.42-4.08-2.53-4.92.69.45,1.67.47,2.41.08.75,2.14,4.17,2.69,5.19.56,4.68,1.78,5.28-3.83,5.17-7.13.27.7.48,1.42.63,2.16.12,4.47-2.03,8.98-.15,13.25.61,1.17.89,5.08,2.77,4.28-2.66,5.67-7.22,10.38-13.32,5.75.07.74.15,1.5.27,2.28v-.46.46c-.11-.78-.2-1.54-.27-2.28-.07-.05-.15-.1-.22-.15-.52-1.15-2.48-.54-2.15.83l.33,1.32c.49.64,1.07,1.22,1.85,1.67-.78-.44-1.36-1.02-1.85-1.67,2.02,8.2,4.05,16.39,6.07,24.59.36,1.44,2.58.83,2.22-.61-1.89-7.65-3.77-15.29-5.66-22.94,6.07,3.3,11.24-.95,14.03-6.31,3.24,9.52,6.43,19.06,9.64,28.6,1.07,3.34,2.59,7.09,1.94,10.58-1.23,4.67-7.47,7.06-11.91,5.78-1.21-.34-2.28-.9-3.33-1.65-.48-.46-1.26-.58-1.74-.05l3.73,2.78-3.73-2.78c-1.68,2.1,4.32,4.05,5.82,4.23,0,0,3.85,0,3.85,0,5.41-.93,10.6-5.16,9.74-11.11ZM220.91,84.07s.04.01.08.02c-.04,0-.06-.01-.08-.02ZM222.38,80.31s0,0,0,0c0,0,0,0,0,0,0,0,0,0,0,0,0,0,0,0,0,0,0,0,0,0,0,0-.01.02-.03.03-.02.01-.02,0-.03.02-.04.02.01,0,.03-.01.04-.02,0,0,0,0,.01-.01ZM222.38,80.34c-.02.06-.04.12-.04.1,0-.02.02-.06.04-.1ZM222.34,80.32s.01,0,.01,0c-.02.02-.04.03-.04.03-.04,0-.04-.02.03-.03ZM222.92,91.55c-.09-.03-.18-.07-.27-.1-.25-.41-.52-.81-.79-1.22.11-.14.21-.29.31-.44.32.81.8,1.61,1.49,2.15-.24-.15-.48-.29-.74-.39ZM225.35,90.17s.1-.05.1-.04c0,.01-.05.03-.1.04ZM225.37,90.16c-1.02.07-1.55-2.77-1.89-3.58.26-1.53.06-3.38-1.23-4.34-.03-.45-.04-.9,0-1.35,0,.04,0,.07-.01.07-.02-.19.1-.47.16-.65.67-.15,1.28.27,1.8.64-.01,0-.02-.01-.03-.02.21.18.42.38.54.63-.48,1.11-.08,2.26.13,3.39.32,1.67.46,3.37.83,5.03-.1.07-.19.13-.3.18ZM227.46,82.09c-.11.02-.16-.04,0,0h0ZM229.82,90.7c-.05.37-.05.91-.41,1.13-.07.06-.66-.1-.24.02-.1-.03-.22-.05-.32-.08.01,0,.02.02.04.03-.31-.11-.41-.47-.53-.76-.72-2.1-.85-4.33-1.25-6.5-.08-.8-.89-2.27.36-2.44.85.29,1.71.88,2.48,1.37.07,2.2-.14,4.41.1,6.61-.12.17-.21.37-.22.63ZM233.73,82.29s-.02,0-.02,0c0,0,0,0,.02,0ZM232.48,90.66s-.03-.01-.05-.02c.02,0,.03.01.05.02,0,0,0,0,0,0ZM232.49,90.66s0,0,0,0c0,0,0,0,0,0,0,0,0,0,0,0,0,0,0,0,0,0ZM232.5,90.71s0,0,0,0c0,.02.01.05.02.08,0-.03-.02-.06-.03-.09ZM234.41,85.52c-.11,1.26.26,6.21-1.91,5.14,0,0,0,0,0,0,.05.01.02,0,0,0,0-.01,0-.01,0,0,0,0,0,0,0,0-.5-2.23-.09-4.59-.24-6.87.16-.22.26-.5.26-.79,1.75-1.68,2.95.05,3.75,1.62-.67-.47-1.86-.17-1.85.9Z"/><path class="cls-7" d="M245.52,155.31h-3.84c1.28.2,2.58.2,3.84,0Z"/><path class="cls-7" d="M233.71,147.54c-2.79-2.46-5.58-4.92-8.36-7.38-.39-.34-.78-.69-1.17-1.03-.67-.65-1.89-.26-1.95.71l1.33,1.05-1.33-1.05c-.04.34.06.69.32.92,2.79,2.46,5.58,4.92,8.36,7.38.74.57,1.56,1.82,2.6,1.19l-3.1-2.32,3.1,2.32c.6-.35.74-1.31.2-1.79Z"/><path class="cls-7" d="M195.36,103.77c.09.07.12.07.1.05-.04-.01-.06-.04-.1-.05Z"/><path class="cls-7" d="M197.77,105.82s0,0,0,0c.09.13.05.07,0,0Z"/><path class="cls-7" d="M184.51,133.73c-3.79-4.94-7.57-9.89-11.36-14.83-.44-.81-3.1-3.09-1.66-3.68,3.32-1.45,6.25-3.92,7.71-7.3.7-1.33-1.21-2.47-1.99-1.16-.67,1.48-1.59,2.8-2.78,3.91-2.14,2.3-7.77,2.79-5.04,7.07,6.44,8.54,13.04,16.97,19.51,25.49,2.94,3.84,5.89,7.69,8.83,11.53.23.3.55.51.89.56.2-.02.49.01.69-.14.49-.28.8-1.08.41-1.58-5.07-6.62-10.14-13.24-15.21-19.86Z"/><path class="cls-7" d="M198.9,155.31h-.27c.09.01.18.01.27,0Z"/><path class="cls-7" d="M221.68,139.41l-1.06-.84,1.06.84c-.59-7.99-1.35-15.97-1.68-23.98.15-1.32-1.9-1.83-2.25-.44.27,11.04,1.56,22.1,2.31,33.14.12,1.49.24,2.98.36,4.47.05.59.45,1.09,1.06,1.14.07-1.12.18-2.26.35-3.46-.17,1.2-.28,2.34-.35,3.46.62.07,1.3-.49,1.25-1.14-.36-4.39-.71-8.79-1.06-13.19ZM219.98,115.6s0-.03,0-.05c0,.02,0,.04,0,.05Z"/><path class="cls-7" d="M205.47,115.39c-.35-3.38-.84-6.75-1.57-10.07-.17-.79-.9-.96-1.49-.73l.7,5.47-.7-5.47c-.49.19-.88.68-.74,1.34,1.31,5.98,1.85,12.11,2.11,18.22.4,9.92.06,19.87-1.07,29.74-.07.62.58,1.15,1.15,1.15.68,0,1.08-.53,1.15-1.15,1.43-12.77,1.71-25.71.44-38.5Z"/><path class="cls-7" d="M207.47,155.31h-1.58c.44.36,1.14.41,1.58,0Z"/><path class="cls-7" d="M207.78,154.79c2.69-9.4,4.81-18.98,6.04-28.68.3-2.38.54-4.77.71-7.17.54-2.78-1.94-3.74-4.21-4.09-.58-2.72-2.48-5.04-3.23-7.67-.17-.58-.82-1-1.42-.81-.59.19-.99.8-.81,1.42.64,2.24,2.03,4.31,2.87,6.42-1.43-.49-2.08,1.76-.65,2.22,1.48.49,3.47.76,4.77,1.19.05.02.4.19.31.15,0,0,0,0,0,0,0,0,0,0,0,0-.01,0-.03-.01-.06-.03.36.32.08.96.11,1.39-.6,8.45-2.1,16.82-4.04,25.06-.79,3.35-1.66,6.67-2.61,9.98-.14.49.03.88.34,1.13h1.58c.14-.13.25-.3.31-.52Z"/><path class="cls-7" d="M197.71,94.97s-.05,0-.07,0l.88,1.05c-.04-.47-.3-.92-.82-1.04Z"/><path class="cls-7" d="M202.42,99.5c-.23-.54-.87-.83-1.43-.57l.18.21,1.26.36Z"/><path class="cls-7" d="M202.55,99.98c-.01-.17-.06-.33-.14-.49l-1.26-.36.85,1.01-.85-1.01-.37-.11c-.79.41-.44,1.33-.56,2.04-.17,1.1-.51,2.14-.73,3.23-.92-1.17-2.06-2.27-3.5-2.74,1.49-1.43,2.41-3.5,2.53-5.56l-.88-1.05c-.23-.04-.49,0-.72.09,0,.1,0,.21,0,.32,0-.11,0-.22,0-.32-.31.13-.58.37-.63.73-.12.77-.3,1.54-.6,2.27-.03.08-.02.05.04-.09-.19.51-.53,1-.85,1.44.03-.04.06-.08.09-.11-.34.47-.85.92-1.32,1.28-.47.41-1.14.59-1.5,1.11-3.2-.86-6.18-2.35-9.04-4.05-2.89-1.75-5.85-3.51-8.29-5.87.11-1.24.15-2.48.14-3.7-.01-1.35-1.93-1.47-2.25-.35l.43,4.49-.43-4.49c-.23,5.95-.08,8.66-4.39,13.25-.2.02-.39.12-.53.24-.49-.43-1.34-.5-1.78.22-.43.72-1.02,1.32-1.62,1.89-2.73,2.52-5.89,4.42-8.96,6.46-4.49,3.2-11.1,6.54-12.94,12.04-1.33,11.09-.5,22.39-.08,33.52h2.26c-.34-9.78-.83-19.59-.34-29.37-.02-4.47,1.42-6.2,4.77-8.94,5.76-4.85,13.26-7.89,18.3-13.6.07.09.15.17.23.24.38,2.1.76,4.2,1.14,6.3.11.61.86.96,1.42.81.65-.18.92-.8.81-1.42-.4-2.2-.79-4.4-1.19-6.59,1.37-1.54,2.76-3.16,3.65-5,10.77,15.33,18.91,32.42,25.14,50.06.21.61.86,1.02,1.49.78-.36-1.14-.77-2.27-1.32-3.37.55,1.1.97,2.23,1.32,3.37.53-.19.93-.83.73-1.39-4.43-12.64-9.91-24.92-16.5-36.58,2.46.55,5.52-3.97,7.4-5.36,3.77,9.83,6.4,20.1,7.76,30.53.09,1.51,2.28,1.52,2.31,0-1.62-10.85-3.79-22.1-8.44-32.02.03-.12.05-.24.05-.36.16-.03.31-.12.44-.21.36.41,1.03.37,1.52.58,0,0-.01,0-.02-.01.03.02.1.04.12.06.95.41,1.66,1.21,2.3,2,0,0,0-.01-.01-.02.58.67,1,1.95,2.1,1.69.67.49,1.84-.1,1.77-.98-.03-.31-.03-.63,0-.94.11-.89.38-1.77.58-2.65l-.31-2.41.31,2.41c.24-.96.44-1.96.35-2.94ZM187.9,105.73c-.97.95-1.91,1.98-3.13,2.62-.51.16-1.06.52-1.11,1.11-2.85-4.96-5.94-9.79-9.32-14.41.03-.17.07-.34.1-.51,4.77,3.71,10.02,6.97,15.74,8.95-.81.7-1.55,1.51-2.29,2.24Z"/><path class="cls-7" d="M200.98,98.92c-.07.03-.13.06-.2.1l.37.11-.18-.21Z"/><path class="cls-7" d="M142.4,155.31c.28,1.15,2.09,1.15,2.26,0h-2.26Z"/><path class="cls-7" d="M201.65,66.81c-.16-.03-.33-.03-.49.01.12.38.25.77.38,1.15.01-.38.05-.76.11-1.16Z"/><path class="cls-7" d="M204.45,77.27c-.36-3.3-1.31-6.43-2.01-9.66-.1-.48-.42-.73-.78-.8-.06.4-.1.78-.11,1.16.24.69.52,1.38.91,2.03-.39-.65-.67-1.34-.91-2.03,0,.06,0,.13,0,.19,0-.06,0-.13,0-.19-.13-.38-.26-.77-.38-1.15-.59.13-1.11.65-.95,1.41.56,2.6,1.38,5.16,1.77,7.8.21,1.64.42,3.52.45,5.21-.32,15.45-15.55,14.86-24.12,5.7-1.02-1.08-2.65.55-1.63,1.63,4.92,5.21,13.15,9.07,20.23,6.26.02-.6.1-1.04.46-1.76-.36.72-.44,1.16-.46,1.76,6.74-2.75,8.62-10.98,7.52-17.56Z"/><path class="cls-7" d="M195.22,67.42c1.48,0,1.49-2.31,0-2.31s-1.49,2.31,0,2.31Z"/><path class="cls-7" d="M184.52,71.01c1.48,0,1.49-2.31,0-2.31s-1.49,2.31,0,2.31Z"/><path class="cls-7" d="M194.39,74.43s0,.02,0,.11c0-.03,0-.07,0-.11Z"/><path class="cls-7" d="M194.33,74.82c-.17.6-.46,1.15-.78,1.68-.74,1.3,1.21,2.45,1.99,1.16,1.66-2.52,1.73-4.96-1.33-6.26-.67-.49-1.57-1.76-1.98-2.85-.24-.57-1.09-.7-1.58-.41-1.92,1.25,2,5.49,3.5,5.85,0,0,.03.03.04.04.06.12.15.24.21.35,0,.02,0,.03,0,.04,0,0,0,.1,0,.14,0-.01,0-.02,0-.03-.01.1-.04.19-.07.29ZM194.14,75.35c.03-.07.02-.05,0,0h0Z"/><path class="cls-7" d="M194.35,85.54s.02-.02-.02.02c.01,0,.02-.01.02-.02Z"/><path class="cls-7" d="M193.23,85.87s.03,0,.04,0c0,0-.03,0-.06,0,0,0,0,0,.01,0Z"/><path class="cls-7" d="M187.41,81.89c-.26.36-.25.84-.04,1.22,3.23,6.63,9.64,7.09,10.94-.96.13-.68-.31-1.52-1.11-1.46-2.57.2-5.14.4-7.72.6-.69.11-1.63-.09-2.06.6ZM190.55,83.88s.03.04,0,0h0ZM195.47,83.8c-.27.67-.62,1.33-1.18,1.79.02-.02.03-.02.04-.04-.2.18-.48.23-.71.31-.12,0-.23.01-.35,0,.03,0-.11-.01-.13,0,.03,0,.05,0,.07,0-1.26-.28-2.18-1.33-2.91-2.33,1.8-.14,3.6-.28,5.39-.42-.06.23-.14.46-.22.69Z"/><path class="cls-7" d="M184,52.47c.59,0,1.18,0,1.77.03-.06-1.2-1.98-1.35-2.23-.16-.82,5.5-2.01,11.39-5.47,15.91-.92,1.2-2.03,2.28-3.27,3.15-.68.43-.79,1.49-.06,1.94.09-.45.34-.83.95-1.04-.61.2-.86.59-.95,1.04.36.24.86.31,1.22.05,6.64-4.72,8.88-13.2,9.8-20.89-.59-.03-1.18-.03-1.77-.03Z"/><path class="cls-7" d="M180.02,43.43c-12.26.54-21.77,12.96-19.99,24.93.37,3.66,1.61,7.11,4.42,9.59.27.24.63.35.96.32.77,3.06,3.45,5.26,6.3,6.37.23.09.47.07.69-.02l-.13-1.37.13,1.37c1.06-.41.97-1.87-.08-2.21-2.67-1.07-5.7-3.84-4.55-6.98.19-.38.48-.8.9-.93.25-.09.51-.1.76-.06.52.07,1.05.5,1.58.21.64,1.12,2.07,4.18,3.68,3.13.64-.48.46-1.26.13-1.87-.03-.08-.02-.05.04.1-.48-1.11-.8-2.33-.99-3.54-.09-.43-.51-.77-.94-.83,2.28-3.41,3.43-7.54,4.33-11.52.12-.61-.18-1.25-.81-1.42-.57-.16-1.29.19-1.42.81-.88,3.62-2.05,8.83-4.65,11.55-.37.28-.6.69-.56,1.12-2.19-.46-4.15,1.31-4.49,3.41-1.69-1.82-2.58-4.1-2.93-6.6-1.4-7.93,2.37-16.34,9.24-20.55,2.52-1.58,5.39-2.56,8.38-2.71.93-.05,1.28-.97,1.04-1.64-1.06.05-2.12.28-3.06.98.94-.7,2-.93,3.06-.98-.14-.39-.49-.7-1.04-.67Z"/><path class="cls-7" d="M201.59,56.22c-1.76-5.37-5.78-10.08-11.15-12.07-1.37-.62-7.13-1.8-7.7-.02.44.02.86.04,1.26.04-.4,0-.82-.02-1.26-.04-.32.9.52,1.67,1.39,1.49,5.34-.7,10.64,2.8,13.34,7.23.67,1.19,1.36,2.43,1.77,3.59.57,1.62.78,3.33.95,5.03.04.94,1.14,1.53,1.89.87-.08-.53-.25-1.06-.55-1.56.3.5.46,1.02.55,1.56.27-.21.45-.53.42-.87-.18-1.76-.37-3.55-.9-5.24Z"/><path class="cls-7" d="M200.76,64.03c-1.24-2.4-2.67-4.7-4.5-6.69-1.82-1.99-4.02-3.59-6.33-4.96-.68-.4-1.33-.02-1.59.54.4.12.8.27,1.2.47-.4-.2-.8-.35-1.2-.47-.23.49-.17,1.1.43,1.46,2.16,1.27,4.17,2.74,5.87,4.6,1.7,1.85,3,4,4.14,6.22.43.83,1.38.67,1.85.11-.33-.82-.75-1.58-1.4-2.23.65.65,1.07,1.41,1.4,2.23.27-.33.39-.79.14-1.28Z"/><path class="cls-7" d="M162.7,154.82c-.66-6.23-1.07-12.47-1.37-18.72-.44-6.76-4.4-12.76-9.35-17.17-1.1-.99-2.74.64-1.63,1.63,5.49,4.71,9.23,11.52,8.81,18.9.37,5.28.59,10.64,1.37,15.86h2.06c.08-.15.12-.32.1-.49Z"/><path class="cls-7" d="M160.54,155.31c.35.87,1.66.85,2.06,0h-2.06Z"/><path class="cls-1" d="M208.94,27.92c-.18-.09-.35-.21-.51-.36s-.29-.32-.41-.51c-.11-.21-.16-.44-.17-.68,0-.24,0-.49.05-.73.15-.31.3-.6.46-.86.16-.27.38-.51.66-.71.24-.15.49-.25.75-.33.26-.07.52-.16.77-.25l.42-.03.11-.42.21-1.22-.19-.05c-.28-.07-.55-.12-.82-.14-.27-.02-.54-.04-.81-.07-.1-.05-.21-.1-.32-.17-.11-.06-.21-.14-.29-.23-.04-.1-.07-.21-.08-.31,0-.1.01-.21.06-.31l.24-.28c.36-.02.73,0,1.1.06s.75.13,1.12.2l.02-.1c.03-.22.03-.44,0-.65-.04-.21-.03-.43.03-.67l.24-.28c.1-.04.21-.07.31-.08.1,0,.21.01.31.06l.28.24c.1.25.14.52.14.8,0,.28-.02.57-.04.86l.26.07c.21,0,.42.03.65.08s.45.1.67.15l.28.24c.04.1.07.21.08.31,0,.1-.01.21-.06.31l-.24.28c-.25.1-.52.1-.8.02-.28-.08-.55-.12-.83-.12l-.15.44-.14.96.16.04c.27.02.54.06.8.1.26.04.54.1.82.17.31.15.6.32.86.53.27.21.52.44.75.71l.29.49c.19.35.28.71.28,1.09s-.06.77-.19,1.17c-.07.26-.15.5-.26.73-.11.23-.26.43-.44.61-.1.04-.21.07-.32.09-.11.02-.22,0-.35-.05l-.28-.24c-.04-.1-.07-.21-.08-.31,0-.11.02-.22.07-.34.14-.17.23-.37.29-.6.06-.23.12-.44.2-.65.03-.22.02-.44-.03-.64-.05-.21-.15-.41-.31-.61-.2-.21-.42-.39-.65-.54s-.51-.25-.82-.31l-1.07-.13c-.13.61-.33,1.17-.59,1.67-.27.51-.63.94-1.09,1.31l-.2.12c-.21.09-.41.13-.6.15-.2.01-.41,0-.62-.06ZM209.61,26.62c.29-.23.51-.48.68-.77.17-.29.29-.62.39-.99l-.06-.02-.55.14-.02.06-.28.14-.06-.02c-.13.15-.24.31-.35.48-.1.17-.17.35-.22.55l.03.28.33.19.11-.04ZM217.07,23.83l-.3-.25c-.1-.16-.23-.31-.39-.44-.16-.13-.3-.27-.43-.42-.04-.1-.07-.21-.08-.31,0-.11.01-.21.06-.31l.24-.28c.1-.04.21-.07.31-.08.11,0,.22.02.34.07l1.02.91c.06.13.1.26.12.39.02.13,0,.27-.05.42l-.24.28c-.1.04-.21.07-.31.08-.11,0-.21-.01-.31-.06Z"/><path class="cls-1" d="M225.41,35.12l-.22-.3c-.02-.11-.02-.22,0-.32.02-.1.07-.21.15-.32l.3-.22.67-.06c.64-.26,1.22-.62,1.74-1.08.51-.46.92-1.03,1.23-1.7l-.29-.16c-.77-.31-1.5-.57-2.19-.79-.69-.22-1.43-.49-2.23-.82l-.22-.3c-.02-.11-.02-.22,0-.32.02-.1.06-.2.13-.29l.3-.22c.93.22,1.78.47,2.57.75.78.28,1.62.6,2.52.95l.14-.19.45-1.12-.12-.06c-.7-.25-1.33-.48-1.88-.69-.56-.21-1.18-.44-1.88-.69l-.21-.3c-.03-.12-.03-.23-.01-.33.02-.1.06-.2.13-.29l.32-.21c.74.12,1.41.3,2,.54.59.24,1.24.49,1.96.75l.03-.06c-.01-.21-.02-.43-.01-.65,0-.22-.02-.44-.09-.65l-.19-.29.02-.33-.12-.06c-.42-.07-.84-.16-1.26-.26-.42-.1-.84-.25-1.24-.44l-.21-.3c-.02-.11-.02-.22,0-.32.02-.1.07-.21.15-.32l.31-.23c.8.2,1.61.4,2.42.6.81.2,1.64.33,2.49.41l.03-.06c.11-.02.22-.02.32,0,.1.02.21.07.32.15l.23.35c.02.11.02.22,0,.32-.02.1-.06.2-.13.29l-.3.22c-.24.02-.48.02-.73-.01-.25-.03-.5-.05-.74-.06l-.08.09.06.11c.04.35.06.7.07,1.04,0,.34,0,.68-.04,1.02l.19.14c.22.07.5.19.84.38s.61.33.81.43l.21.3c.02.11.02.22,0,.32-.02.1-.06.2-.14.29l-.3.22c-.29.02-.63-.08-1.02-.32-.39-.23-.73-.39-1.02-.47l-.06.12-.48,1.18.09.05.8.35,1.63.87.22.3c.02.11.02.22,0,.32-.02.1-.07.21-.15.32l-.3.22h-.37s-1.57-.85-1.57-.85l-.94-.43c-.37.83-.87,1.55-1.5,2.14-.63.59-1.36,1.05-2.2,1.38l-.18.05c-.21.01-.42.04-.62.06-.21.03-.4-.02-.58-.14Z"/><path class="cls-1" d="M238.52,40.57c-.05-.08-.09-.16-.14-.25-.04-.09-.07-.19-.08-.31.12-.46.33-.89.64-1.27.31-.38.66-.74,1.03-1.09.52-.48,1.05-.94,1.57-1.38.52-.44,1.04-.9,1.56-1.37l.22-.25c.08-.05.16-.09.24-.12.08-.03.16-.06.25-.08.1,0,.2.04.29.09.09.05.17.12.23.22l.13.36c-.05.24-.16.44-.34.62-.18.18-.36.36-.52.54l-.71.55.11.08c.31.26.63.5.98.72.34.22.67.48.98.77l.13.34c-.02.1-.06.2-.1.29-.05.09-.11.18-.2.25l-.35.12c-.46-.17-.89-.42-1.3-.74-.41-.32-.81-.65-1.21-.97l-1.83,1.71-.3.4.05.05c.43.19.88.36,1.33.49.45.13.87.35,1.26.66l.13.34c-.02.11-.05.21-.09.31-.05.09-.12.17-.21.24l-.34.13c-.59-.21-1.18-.42-1.75-.63-.58-.21-1.12-.48-1.63-.81ZM240.46,45.82c-.05-.08-.09-.16-.12-.24s-.05-.15-.06-.22c.01-.11.04-.21.09-.3.04-.09.11-.17.21-.23l.36-.13c.34.05.7.07,1.1.06.39,0,.73.11,1.02.36l.11.37c-.02.11-.05.21-.1.3-.05.09-.12.17-.22.23l-.35.12c-.2-.04-.41-.06-.63-.06-.22,0-.43.01-.64.03-.13-.03-.25-.06-.38-.1-.13-.03-.26-.1-.38-.19ZM242.45,44.05l-.14-.38c.05-.17.11-.33.19-.47.08-.14.17-.29.26-.44l1.23-1.13.89-.95c.42-.33.83-.71,1.24-1.12.4-.42.86-.68,1.37-.8.2.05.39.12.55.23.16.1.32.22.47.36.21-.07.42-.14.62-.2s.41-.13.64-.22l-.76-.75-.84-.79-.11-.34c0-.1.03-.2.08-.31.05-.1.12-.19.21-.25l.35-.12c.22.06.43.16.62.3.19.14.37.3.53.48l1.02,1.01.95.8,1.59,1.6.13.34c-.02.11-.05.21-.09.31-.05.1-.12.18-.23.26l-.34.13-.37-.1-1.49-1.5c-.18.07-.35.14-.49.21s-.35.16-.6.25l-.06.08.17.16,1,.94c.08.13.16.24.24.35s.13.24.14.38c-.02.11-.05.22-.11.34-.06.11-.11.23-.16.34l-1.42,1.46-.7.76c-.47.38-.91.8-1.32,1.25-.41.45-.89.76-1.43.91-.22-.03-.43-.13-.62-.31-.19-.18-.37-.34-.53-.49l-2.41-2.36-.26-.21ZM246.33,45.97l.47-.47.19-.14-.05-.05c-.43-.36-.85-.73-1.26-1.1-.41-.38-.83-.76-1.25-1.16l-.56.52,2.11,2.09.34.32ZM244.07,49.55l-.14-.33.05-.09-.06-.06c.05-.28.06-.59.05-.92,0-.33,0-.64.03-.92l.27-.3.35-.12c.12,0,.22.03.32.08s.17.12.23.22l.11.36.05.31v.74s-.08.21-.08.21l.05.05v.14c0,.17-.02.33-.07.47-.05.14-.14.27-.28.38l-.37.11c-.09-.03-.19-.07-.28-.12-.09-.05-.17-.12-.23-.22ZM247.92,44.45l.15-.18.39-.32-.14-.14-.2-.18v-.05s-1.12-1.1-1.12-1.1l-1.04-.94-.59.55.49.5,2.06,1.85ZM249.35,43l.57-.6-.71-.7-1.77-1.51-.53.51.4.4.57.44,1.46,1.47Z"/><path class="cls-1" d="M249.74,55.66c-.09-.2-.14-.41-.15-.63,0-.21.01-.44.06-.67.11-.32.28-.59.49-.82.22-.23.46-.43.74-.62.32-.11.65-.18.99-.22.34-.04.69.02,1.05.17.44.14.82.35,1.14.66.33.3.6.67.82,1.11l.22.79c.98-.43,1.95-.9,2.9-1.4.95-.5,1.92-.93,2.92-1.3.1.04.19.1.27.17.08.07.14.16.17.27-.08.66-.16,1.32-.21,1.98-.06.66-.17,1.34-.32,2.03-.12.32-.29.62-.52.87-.23.26-.51.47-.85.64-.3.1-.61.15-.92.18-.31.02-.63-.04-.97-.19-.09-.02-.17-.07-.25-.13-.07-.06-.13-.15-.16-.25-.01-.07,0-.15.02-.24s.06-.16.11-.21l.23-.13c.21,0,.43.05.65.13.22.08.43.05.61-.08.07-.06.14-.12.22-.16.08-.04.11-.12.11-.22.07-.37.07-.73,0-1.08s-.14-.76-.22-1.24c-1.17.48-2.28,1.02-3.31,1.64-1.03.61-2.13.97-3.3,1.08l-.44-.1-.03-.06-.06.03c-.4-.13-.72-.34-.98-.61-.26-.27-.51-.58-.74-.9l-.04-.13-.24-.36Z"/><path class="cls-1" d="M23.67,52.96l-.32.19c-.2,0-.38-.04-.54-.14-.17-.1-.33-.21-.49-.33v-.05s-1.92-1.36-1.92-1.36l-.02-.06-1.4-1-.04.05.04.07.09.39.09.39.09.47.02.14.02.67-.2.34-.33.18c-.11,0-.22-.01-.32-.04-.1-.03-.19-.09-.28-.18l-.18-.33-.03-.19-.03-.31c-.13-.8-.3-1.57-.53-2.31-.23-.74-.48-1.46-.76-2.15l-.12.16-.93,1.94c-.07.06-.14.11-.21.16-.07.04-.15.08-.22.11-.11,0-.22-.01-.32-.04-.1-.03-.19-.09-.28-.18l-.18-.33c.2-.62.45-1.24.74-1.84.3-.6.65-1.18,1.05-1.74.07-.06.14-.11.21-.16.07-.04.15-.08.23-.1.11,0,.22.01.33.05.11.04.21.1.31.2.2.28.36.57.48.87s.23.6.35.9l-.04.05.15.31-.04.05.12.09c.28-.16.56-.31.86-.46.29-.15.6-.27.9-.38.11,0,.22.01.32.04.1.03.19.09.27.17l.19.34c0,.11-.01.22-.04.32-.03.1-.09.2-.19.3-.19.11-.39.21-.6.29-.21.08-.41.19-.6.33l1.86,1.32v.05s1.95,1.38,1.95,1.38c.13.12.27.23.42.34.15.11.25.24.29.41,0,.11-.01.22-.04.32-.03.1-.09.19-.18.26ZM25.83,49.65c-.06.05-.13.1-.2.14s-.15.08-.22.11c-.51-.02-.99-.18-1.45-.49-.46-.31-.92-.62-1.37-.92l-1.16-.84-.42-.28-.19-.34c.1-.39.28-.77.55-1.14.26-.37.49-.75.68-1.13l1.17-1.58c.31-.34.61-.69.89-1.07.28-.37.62-.65,1.01-.83l.42.07,1.12.82v.05s1.18.88,1.18.88c.24.22.48.44.74.65.26.21.46.45.59.73l-.13.32.05.04c-.03.27-.12.51-.27.73s-.3.44-.46.66l-.3.34-.51.74-.37.37-.98,1.35-.39.64ZM25.89,47.28l-.75-.55-.08.11-.76,1.24.45.32.28.12.14-.19.72-1.04ZM27.77,44.79l-.05-.04-.62-.56-.3.36-.84,1.15.79.56.27-.38.36-.54.28-.33.11-.21ZM24.04,45.96l-.48-.36-.35-.23-.08.11-.74,1.24.8.61.25-.35c.05-.18.14-.36.28-.52.14-.16.24-.33.32-.49ZM26.08,43.38l-.28-.22-.54-.42-1.26,1.56.3.24.55.37.95-1.27.27-.26ZM20.77,45.62l-.34.17c-.47-.13-.92-.35-1.36-.67-.44-.32-.88-.6-1.34-.86-.05-.08-.1-.16-.15-.23-.05-.08-.09-.15-.12-.23.08-.32.22-.64.41-.95.19-.31.38-.63.57-.94l1.04-1.41.1-.09.19-.29c.14-.14.29-.29.44-.43.15-.14.32-.25.51-.33l.4.08,1.33,1.01c.17.14.35.27.52.4.17.13.29.3.35.5l-.06.31.05.04-.07.36-1.6,2.2-.4.62-.29.32c0,.08-.02.16-.06.22-.04.07-.08.14-.13.21ZM21.92,41.67l-.35-.23-.61-.52c-.12.04-.21.11-.25.21-.05.1-.12.18-.22.22l-.95,1.29-.5.91.05.04.97.63.53-.69v-.05s1.34-1.81,1.34-1.81ZM15.08,46.45l-.33.18c-.3-.02-.6,0-.89.05-.3.05-.58-.01-.84-.2l-.18-.33c0-.11.01-.22.04-.33.03-.11.09-.2.18-.27l.33-.17.4-.04.4-.04c.16-.02.32-.02.48.01.16.03.3.11.43.23l.19.34c0,.11-.01.22-.04.32-.03.1-.09.19-.17.27ZM17.14,42.69c-.07.06-.14.11-.22.15-.08.04-.15.08-.23.1-.11,0-.22-.01-.31-.05-.1-.04-.19-.1-.28-.19l-.17-.33c.15-.46.37-.89.66-1.31.3-.42.59-.84.88-1.26l.5-.61.46-.7.32-.16c.11,0,.22.01.32.05.11.03.19.1.27.19l.17.33c-.05.32-.17.62-.37.91-.2.29-.41.58-.62.86l-.22.25-1.15,1.76Z"/><path class="cls-1" d="M42.39,33.94c-.09.04-.17.06-.25.08-.08.02-.16.04-.23.05-.11-.03-.2-.08-.29-.14s-.15-.14-.19-.25c-.22-.48-.45-.96-.7-1.44-.25-.49-.55-.96-.9-1.42l-1.41-1.89c-.48-.61-.95-1.18-1.4-1.7-.46-.52-.96-1.05-1.51-1.6l-.33.2-1.81,1.1c-.88.68-1.74,1.39-2.57,2.12-.83.73-1.66,1.47-2.47,2.22l.35.47.47.48.95,1.25.56.71.11.21h.05s1.22,1.65,1.22,1.65h.05s1.3,1.75,1.3,1.75l.38.45c.05.1.1.2.15.31s.07.21.07.32c-.03.11-.08.2-.14.29-.06.09-.14.16-.24.2l-.38.06c-.12-.05-.23-.11-.33-.19-.1-.08-.19-.17-.27-.28l-.2-.33h-.05s-1.34-1.8-1.34-1.8h-.05s-1.28-1.61-1.28-1.61l-.67-.91-.99-1.26-.74-.9c-.18-.28-.29-.48-.32-.6-.03-.12-.03-.28,0-.48.79-.98,1.67-1.88,2.62-2.7.96-.82,1.93-1.63,2.93-2.43l1.86-1.14c.21-.19.43-.32.65-.41s.47-.13.72-.13c.73.55,1.38,1.14,1.93,1.79.55.65,1.12,1.33,1.72,2.06l1.49,1.99c.4.53.75,1.08,1.05,1.65.29.57.54,1.15.72,1.74-.02.08-.06.16-.12.23-.06.07-.12.14-.17.21ZM39.23,33.91l-.38.06-.09-.06-.43.32-1.48,1.22-1.55,1.15c-.08.04-.17.07-.26.09-.09.03-.19.04-.3.04-.3-.11-.57-.29-.79-.56-.22-.26-.44-.52-.66-.78-.06-.12-.12-.23-.18-.35-.06-.11-.08-.24-.08-.38.04-.11.09-.21.15-.3.06-.09.14-.15.24-.2l.35-.06c.14.04.25.1.34.2.09.1.17.2.25.31l.03.1.5.54.81-.59-.06-.08-.57-.7-1.15-1.66-.41.29c-.2.21-.42.41-.65.6-.23.19-.46.37-.7.55-.08.04-.17.06-.25.08-.09.02-.17.03-.25.03-.11-.03-.2-.08-.29-.14-.09-.06-.16-.14-.2-.24l-.05-.38c.07-.2.2-.37.4-.49.2-.12.37-.26.5-.42l-.08-.11c-.28-.18-.56-.35-.85-.51-.29-.16-.54-.38-.77-.65-.04-.08-.06-.17-.08-.25-.02-.08-.03-.16-.04-.24.03-.11.08-.2.13-.29.06-.09.14-.16.24-.2l.37-.07c.33.25.68.49,1.04.7.37.22.7.49,1.01.82l.13-.1c.12-.17.27-.33.45-.47s.35-.28.52-.43l-.04-.05-.19-.15c-.14-.4-.24-.8-.32-1.21-.08-.41-.15-.81-.2-1.22.02-.12.07-.22.13-.3s.14-.16.24-.2l.38-.06c.11.03.2.08.29.14s.16.15.22.27l.48,2.1.08-.06.51-.43c.12-.06.23-.12.35-.18.11-.06.24-.08.38-.08.11.03.2.08.29.15.09.07.15.15.2.25l.06.35c-.03.11-.08.2-.13.27-.06.07-.12.15-.2.23l-.63.39-.33.29-.75.5,1.79,2.56.32-.24.77-.64-.26-.35-.58-.65-.06-.38c.03-.11.08-.2.14-.29.06-.09.14-.16.24-.21l.37-.07c.36.23.68.53.98.89.3.36.59.72.89,1.09l.07.37c-.03.11-.07.21-.13.3-.06.09-.14.16-.24.21Z"/><path class="cls-1" d="M50.11,28.39l-.37-.04c-.09-.06-.17-.13-.24-.22-.07-.08-.11-.19-.13-.31.24-.77.37-1.54.37-2.31,0-.77-.16-1.54-.51-2.31-.07-.12-.14-.23-.23-.34-.09-.11-.21-.18-.36-.22-.1-.01-.2,0-.29.03-.09.03-.19.07-.3.11l-.67.31c.06.57.14,1.14.24,1.7.1.57.14,1.13.12,1.67-.06.09-.13.17-.22.24-.08.06-.19.11-.32.13l-.37-.04c-.09-.06-.17-.13-.24-.21-.07-.08-.11-.18-.12-.3,0-.4-.04-.8-.11-1.18-.07-.39-.13-.79-.18-1.19l-.09.03c-.12.12-.26.23-.4.34-.14.11-.31.19-.51.24l-.37-.04c-.09-.06-.17-.13-.24-.22-.06-.08-.11-.18-.12-.29l.04-.37c.23-.22.47-.43.73-.62.26-.19.52-.36.79-.53-.03-.34-.11-.69-.23-1.03-.12-.35-.16-.68-.11-1.01.06-.09.13-.17.21-.24.08-.07.18-.11.29-.13l.38.06c.09.06.17.14.24.23.07.09.12.21.14.34.05.2.1.38.15.57.05.18.09.36.11.55l.09-.03.79-.36c.18-.04.36-.06.54-.07s.36.03.54.11l.34.16c.34.23.61.54.81.92.2.38.36.78.49,1.21.21.73.31,1.44.28,2.15-.03.71-.17,1.42-.43,2.14-.06.09-.13.18-.21.25-.08.08-.18.13-.32.15ZM55.96,22.12c-.09,0-.18.01-.26,0s-.17-.02-.24-.04c-.35-.32-.72-.62-1.1-.9-.38-.28-.8-.53-1.25-.77l-1.44-.55c-.09-.06-.17-.13-.24-.22-.07-.08-.11-.18-.12-.29l.04-.37c.06-.09.13-.17.22-.24.08-.06.18-.11.29-.12.33.05.65.14.98.29.33.14.66.27.98.39l.62.34.16.15.06-.02c.32.24.64.48.97.72.32.24.58.54.78.89l-.04.37c-.04.09-.1.15-.17.2-.08.05-.15.1-.23.15Z"/><path class="cls-1" d="M64.56,25.78l-.35-.13-.59-.92h-.1c-.17.12-.35.2-.53.26-.18.06-.39.1-.61.13-.18,0-.36-.04-.53-.1s-.33-.15-.48-.27c-.27-.24-.46-.53-.58-.86-.12-.33-.2-.68-.24-1.06.02-.29.06-.57.14-.83.08-.26.23-.51.45-.73.18-.17.38-.34.59-.51s.43-.29.67-.38l-.04-.8c-.18.02-.34.01-.49-.02-.15-.03-.29-.08-.43-.16-.07-.08-.13-.17-.18-.27-.04-.1-.06-.2-.05-.31l.13-.35c.08-.08.17-.13.27-.18.1-.04.21-.06.35-.05l.51.05c.02-.25.06-.5.11-.76.05-.26.15-.5.28-.71.08-.08.17-.13.27-.18.1-.04.2-.06.31-.05l.35.13c.08.08.13.17.18.27.04.1.06.21.05.35l-.2.72.2-.02.85-.18.35.13c.08.08.13.17.18.27.04.1.06.21.05.35l-.13.35c-.23.16-.49.25-.78.29-.29.04-.57.09-.86.17v.57c.23-.05.46-.06.67-.05.21.01.43.03.66.05.04-.09.06-.18.07-.28.01-.09.05-.18.11-.28.08-.07.17-.13.27-.18.1-.04.2-.06.31-.05l.35.13c.07.08.13.17.18.27.04.1.06.2.05.31l-.14.68h.07s.55.44.55.44c.26.38.51.76.75,1.15.24.39.37.85.4,1.37l-.13.35c-.08.07-.17.13-.27.18s-.2.06-.31.05l-.35-.13c-.15-.37-.3-.72-.47-1.07-.17-.35-.37-.68-.6-.99l-.1-.02-.4.74-.21.25-.27.36-.21.3-.12.11v.1c.14.23.29.45.46.66.16.21.26.46.29.74l-.13.35c-.08.08-.17.13-.27.18-.1.04-.2.06-.31.05ZM62.94,23.57l-.02-.2-.41-1.5h-.1c-.08.08-.17.17-.28.25-.1.09-.17.19-.21.3l-.05.54c.03.13.08.27.14.41.06.14.14.26.24.36l.21.06.48-.23ZM64.01,22.19v-.03c.12-.12.22-.24.31-.36s.16-.26.21-.42v-.1c-.12-.03-.25-.04-.4-.03-.14.01-.28.03-.42.04l.02.23.24.71.03-.04Z"/><path class="cls-1" d="M75.37,19.83c-.17-.08-.35-.15-.55-.2-.2-.05-.37-.15-.51-.3-.12-.17-.2-.34-.24-.53-.04-.18-.06-.37-.06-.58.04-.22.11-.43.21-.63s.23-.39.4-.55c.19-.14.39-.23.61-.26.22-.03.44-.03.69.01.15.04.29.09.42.17.13.08.24.17.34.27.18.24.29.5.35.79.05.28.05.58,0,.89l-.32.51h-.07s-.08.09-.08.09c-.17.14-.36.23-.56.27-.2.04-.42.06-.64.06Z"/><path class="cls-1" d="M84.83,20.72c-.16-.11-.33-.2-.51-.28-.19-.08-.34-.2-.46-.37-.09-.18-.14-.37-.15-.55-.01-.19,0-.38.02-.58.07-.21.18-.41.3-.6.13-.19.29-.35.48-.48.21-.11.42-.16.64-.17.22,0,.44.04.67.12.15.06.28.14.39.23.11.1.21.2.3.32.14.26.22.54.22.83,0,.29-.04.58-.13.88l-.39.45-.06-.02-.09.08c-.19.11-.39.17-.59.18-.21,0-.42,0-.64-.04Z"/><path class="cls-1" d="M94.07,23.01c-.14-.13-.29-.25-.47-.36s-.3-.25-.4-.44c-.06-.19-.09-.38-.07-.57.02-.19.05-.38.11-.57.11-.2.23-.38.39-.54.15-.16.33-.3.55-.4.22-.08.44-.1.66-.07s.43.1.65.22c.14.08.25.18.35.29.1.11.18.23.25.36.1.28.13.57.1.85-.03.29-.12.57-.26.85l-.45.39-.06-.03-.1.07c-.2.08-.41.11-.61.09-.21-.03-.42-.07-.63-.13Z"/></svg>