<?xml version="1.0" encoding="UTF-8"?><svg id="_レイヤー_1" xmlns="http://www.w3.org/2000/svg" xmlns:xlink="http://www.w3.org/1999/xlink" viewBox="0 0 269.81 159.16"><defs><style>.cls-1{fill:url(#_新規パターン_6);}.cls-2{fill:#fff;}.cls-3{fill:none;}.cls-4{fill:url(#_新規パターン_6-2);}.cls-5{fill:#0096dc;}.cls-6{fill:#969696;}.cls-7{fill:#ffdc50;}.cls-8{fill:#323232;}.cls-9{fill:#e6e6e6;}</style><pattern id="_新規パターン_6" x="0" y="0" width="4.98" height="5.18" patternTransform="translate(1643.54 -1424.83) rotate(-45) scale(.64)" patternUnits="userSpaceOnUse" viewBox="0 0 4.98 5.18"><rect class="cls-3" width="4.98" height="5.18"/><rect class="cls-2" x="0" y="0" width="4.98" height="5.18"/><circle class="cls-6" cx="2.49" cy="2.59" r="1.06"/></pattern><pattern id="_新規パターン_6-2" patternTransform="translate(1640.84 -1426.03) rotate(-45) scale(.64)" xlink:href="#_新規パターン_6"/></defs><path class="cls-7" d="M201.57,63.38s0,.01,0,.02c0,0,.01.01.02.02,0-.02-.02-.03-.02-.03Z"/><path class="cls-7" d="M175.95,59.04s.03.03.04.04c0-.02-.02-.03-.03-.05,0,0-.01,0-.02.01Z"/><path class="cls-7" d="M175.96,59.01s0,.01,0,.01c0,0,0,0,0,0,0,0,0,0,0-.01,0,0,0,0,0,0Z"/><path class="cls-7" d="M201.79,63.76s0,0,0-.01c0,0,0,.01,0,.01Z"/><path class="cls-7" d="M184.75,83.78c.07.05.06.03,0,0h0Z"/><path class="cls-7" d="M201.61,63.44s-.01-.01-.02-.02c.01.03.04.06.06.1.04.03.06.02-.04-.08Z"/><path class="cls-7" d="M175.96,59.01s0,0,0-.01c0,0,0,0,0,.01,0,0,0,0,0,0Z"/><path class="cls-7" d="M175.95,58.99c-.07-.04-.04,0-.01.03,0-.01,0-.02.01-.03Z"/><path class="cls-2" d="M158.48,133.06c-1.86-2.02-3.66-4.16-5.56-6.13-.91-.69-2.07.63-1.32,1.45.23.27.35.6.33.92.65.17,1.26.56,1.67,1.11.69,1.05,1.68,1.97,2.18,3.11,1.01-.03,2.02-.06,3.03-.08-.11-.12-.22-.25-.34-.37Z"/><path class="cls-7" d="M150.59,132.06c-.02.11,0,.19,0,0h0Z"/><path class="cls-2" d="M152.59,132.98c-.3-.4-.6-.81-.91-1.21-.03,0-.1-.1-.16-.12,0,0-.04,0-.11-.05-.13-.05-.28-.06-.41,0,.04,0,.02.02-.1.04-.25.13-.34.4-.32.67.21.54.65.93.96,1.41.5-.04,1.01-.07,1.52-.1-.16-.21-.32-.42-.47-.63Z"/><path class="cls-7" d="M150.87,131.64s-.05.05-.07.07c.02,0,.09-.07.07-.07Z"/><path class="cls-7" d="M151.46,131.61s-.01,0-.02,0c.03.02.06.03.09.05,0,0-.01-.02-.07-.04Z"/><path class="cls-7" d="M151.38,131.57s.02.02.04.03c0,0,.01,0,.02,0-.02,0-.04-.02-.05-.03Z"/><path class="cls-7" d="M150.91,131.63s.02-.01.03-.01c-.02,0-.04.01-.06.02,0,0,.02,0,.03,0Z"/><path class="cls-7" d="M231.62,150.92c.02.1.09.06-.05-.17.02.05.04.11.05.17Z"/><path class="cls-7" d="M229.38,150.85s0-.03.01-.05c-.01.03-.03.06-.03.1,0-.01.01-.03.02-.05Z"/><path class="cls-1" d="M233.71,112.48c-.65-1.02-1.73-1.71-2.67-2.44-6.39-5.01-12.75-10.04-19.12-15.08-3.15,5.95-7.42,11.24-10.46,17.24-2.02,4.14-3.12,8.76-3.8,13.37-.15.89-1.51,1.16-2.02.47l-.66,4.36c2.82-2.64,6.74-3.06,10.41-3.43,1.26-.2,2.65-.59,3.81.15.12-.98.39-2.22,1.67-1.93.64.18.96.83.83,1.46-1.51,8.12-2.57,16.32-3.86,24.47h21.49c1.78-9.02,3.07-18.16,4.43-27.26.29-3.79,2-7.84-.04-11.37ZM225.87,110.64c-6.2,1.35-11.83,4.99-15.5,10.18-.84,1.31-2.81.15-2.05-1.2,4.02-5.69,10.1-9.79,16.92-11.27,1.49-.32,2.12,1.96.63,2.29Z"/><path class="cls-2" d="M184.39,44.11c1.18-1.71,3.94-3.9,6.09-3.08.23-.03.46-.03.7-.02.07-.76,1.12-1.34,1.77-.86,1.48,1.11,3.05,2.45,3.48,4.34,1.16,4.16-4.89,6.61-3.31,10.73,2.52,1.05,5.05,2.1,7.57,3.14,1.48.48.87,2.69-.63,2.29-1.45-.6-2.9-1.21-4.35-1.81.71.9,2.18,1.25,2.12,2.46,3.35-1.51,7.1-.07,6.32,4.07.5.5.04,1.31.64,1.87,3.05,2.98,5.12,3.51,5.98,8.35,3.28-3.76,7.64-6.42,10.95-10.15,1.57-1.37,1.53-3.57,1.42-5.49-.28-2.98-1.42-8.57-4.29-9.98,0,.05,0,.1,0,.16,0-.05,0-.1,0-.16-1.44-.03-1.9-1.84-.5-2.37-.13-.37-.27-.73-.41-1.11-.71.45-1.89.15-1.84-.94.02-.5.02-1-.02-1.49-.11-1.33-.55-2.63-1.48-3.6-2.82-2.69-7.12-2.5-10.76-2.54-2.85.05-5.71.34-8.56.25-4.57-.11-10.5,0-12.69,4.65-.62,1.55-.64,3.12-.36,4.82.1.61-.15,1.23-.77,1.44.01.37.08.74.18,1.11.83-2.05,1.47-4.26,2.75-6.09Z"/><path class="cls-2" d="M188.15,94.92c6.26,1.03,12.63.58,18.86-.43.57-.09,1.13.1,1.38.63l.78-.13c.53-.71.77-1.92,1.61-2.3.13-.23.36-.4.59-.47l-.58-.72c.36,1.71-2.29,2.14-2.37.37.14-4.26-.29-8.65.16-12.85.15-2.45-.29-5.47-2.14-7.22-1.02-.97-2.56-1.86-3.52-3.07-1.31,2.14-3.49,3.77-6.04,3.97-1.55-.02-1.56-2.3,0-2.37.09,0,.43-.06.05,0,.79-.11,1.54-.43,2.19-.89.06-.04.33-.26.05-.03.44-.33,1.06-.98,1.31-1.31.83-1.15,1.56-2.64,1.37-4.08.02.01.07.34,0,.05-.05-.2-.07-.37-.21-.54-.03-.02-.08-.07-.08-.11-.08-.1-.21-.15-.31-.22-.35-.12-.84-.11-1.18-.06-.59.1-1.16.28-1.71.5-.02,0-.35.15-.12.05-.9.47-2-.27-1.74-1.31-2.17-1.11-4.02-3.17-5.16-5.33-2.16-.9-4.32-1.8-6.48-2.69.6.66.32,2.02-.84,2.02-1.53,0-1.53-2.37,0-2.37-.43-.18-.86-.36-1.28-.53-.56,1.05-1.25,2.03-2.15,2.83-.17.81-.33,1.62-.48,2.43-.52,1.58-2.76.8-2.25-.8-.66.3-1.39.6-1.9,1.11.02.04.03.05.02.05.97,1.87,1.43,3.9.9,6,1.73.62,3.46,1.23,5.2,1.85.88.31,1.12,1.27.52,1.98-1.72,1.92-4.22,3.34-6.85,3.32-.24,1.65-1.39,3.41-.9,5.15.23,1.06.95,1.97,1.98,2.33,1.86.7,3.86,1.02,5.83,1.32,1.33.2,3.31.11,3.88,1.59.92,2.77,1.08,5.77,1.58,8.64.31,1.43-1.63,2.11-2.24.78l-3.24.9-.56.89c2.01.41,4.03.79,6.06,1.1Z"/><path class="cls-2" d="M190.92,41.66c.23,1.25-.73,1.48-1.72,1.65-.59.15-1.12.43-1.61.79-2.19,1.84-2.74,4.63-3.85,7.23,2.28.95,4.56,1.89,6.84,2.84-.77-5.25,7.52-7.61,1.19-11.96-.39-.29-.64-.73-.58-1.19-.24-.01-.47,0-.7.02.2.14.36.34.43.62ZM190.41,51.76c-1.3.74-1.79-1.08-2.84-1.43-.94-.38-2.37,0-2.44-1.43.3-3.22,7.98.83,5.28,2.86Z"/><path class="cls-2" d="M207.64,96.78c-8.57,1.57-17.33,1.39-25.82-.6-3.77,5.11-6.32,11.18-8.02,17.31-1.05,3.7-1.88,7.5-2.15,11.3-.04.71-.66,1.32-1.4,1.16l-.1,5.29c.48.5.56,1.34-.03,1.8v.19c5.16-.09,10.34-.15,15.48-.66,1.25-.14,2.51-.3,3.7-.7.86-.3,1.76.68,1.44,1.5.04.08.07.16.1.24,1.42-1.05,2.75-2.16,4.14-3.23l.66-4.36c-.87-1.16,1.17-7.98,1.63-9.66,2.46-7.89,7.92-14.26,11.91-21.37l-.78.13c.31.59-.05,1.54-.75,1.66Z"/><path class="cls-4" d="M185.69,150.83c-2.03-4.63-1.12-11.77,1.53-16.03-12.06,1.37-25.42.42-36.9,1.44-.82.18-1.93.33-2.21-.7-.16-.57.18-1.28.77-1.44-1.15-1.33-.77-3.55.73-4.45-1.1-1.54-.62-3.93,1.1-4.82-1.47-3.8,3.62-6.29,5.98-3.06,1.9-2.55,4.67-1.26,6.12,1.01,2.44,2.83,4.88,5.66,7.32,8.49l.1-5.29c-.53-.11-1.01-.6-.97-1.16.15-2.18.48-4.35.91-6.48,1.8-8.22,4.47-16.61,9.69-23.32.18-.22.45-.32.73-.34.17-.66.84-.97,1.48-.83l.56-.89-4.96,1.38c1.51,2.22-2.24,2.25-3.56,2.84-5.45,1.9-11.89,3.23-16.21,7.25-2.9,2.6-4.17,6.29-5.65,9.78-3.35,7.98-6.54,16.03-9.9,24-.61,1.45-1.23,2.9-1.87,4.34-.46,1.12-1.36,3.5-2.86,2.23l-2.83,6.35h47.84c1.02-.08,2.04-.16,3.05-.27Z"/><path class="cls-7" d="M170.11,133.25v-.19c-.1.08-.22.15-.34.2.11,0,.23,0,.34,0Z"/><path class="cls-5" d="M205.59,150.35c.06-.42.13-.85.19-1.27-3.24.9-6.53,1.57-9.86,2.02h9.74c-.08-.23-.11-.49-.07-.75Z"/><path class="cls-2" d="M208.15,129.25c-.58-.47-1.38-.08-2.04-.02-2.24.33-4.51.36-6.64,1.18-2.91.68-8.34,7.26-11.01,6.92-1.37,3.86-2.25,8.25-.76,12.16,6.24-.27,12.4-1.34,18.43-2.87.53-3.58,1.07-7.16,1.63-10.73.27-1.77.53-3.55.82-5.32.03-.53-.1-1.02-.44-1.33Z"/><path class="cls-7" d="M229.44,150.7s-.03.06-.04.1c.01-.03.03-.07.04-.1Z"/><path class="cls-7" d="M150.94,131.62s.05-.01.07-.02c-.02,0-.04,0-.07.02Z"/><path class="cls-7" d="M140.15,137.41s0-.01,0-.02c0,0,0,.01,0,.02Z"/><path class="cls-7" d="M150.74,131.74s.04-.02.06-.03c-.02.01-.04.03-.06.03Z"/><path class="cls-2" d="M158.91,124.25c2.29,2.55,4.58,5.09,6.87,7.64.41.46.38,1,.13,1.42,1.01-.01,2.01-.03,3.02-.04-2.62-2.48-4.8-5.54-7.27-8.22-.77-.7-1.36-2.06-2.38-2.33-.9.13-.84,1.01-.37,1.53Z"/><path class="cls-7" d="M150.86,131.64s0,0,.01,0c0,0,0,0-.01,0Z"/><path class="cls-2" d="M153.22,124.5c1.88.65,2.96,2.65,4.34,3.99,1.31,1.65,3.11,3.06,4.15,4.87.73-.01,1.46-.02,2.19-.03-3.08-3.42-6.14-6.84-9.22-10.25-1.06-1.27-2.57.27-1.46,1.42Z"/><path class="cls-8" d="M217.5,48.75c0,.78.67,1.16,1.35,1.23-.02-.85-.23-1.62-.5-2.37-.49.14-.86.65-.86,1.14Z"/><path class="cls-8" d="M225.38,58.67c-.58-3.78-2.27-11.04-7.03-11.07.27.76.47,1.52.5,2.37,2.88,1.43,4,6.98,4.29,9.98.12,1.92.15,4.12-1.42,5.49-3.32,3.72-7.67,6.38-10.95,10.15-.85-4.84-2.93-5.38-5.98-8.35-.59-.56-.14-1.36-.64-1.87.78-4.14-2.97-5.57-6.32-4.07.06-1.21-1.41-1.56-2.12-2.46,1.45.6,2.9,1.21,4.35,1.81,1.49.4,2.12-1.8.63-2.29-2.52-1.05-5.04-2.1-7.57-3.14-1.58-4.12,4.47-6.57,3.31-10.73-.43-1.89-2-3.23-3.48-4.34-.66-.48-1.7.09-1.77.86.93.05,1.88.36,2.54.58-.65-.22-1.6-.53-2.54-.58-.06.46.18.9.58,1.19,6.33,4.35-1.96,6.7-1.19,11.96-2.28-.95-4.56-1.89-6.84-2.84,1.11-2.59,1.66-5.34,3.81-7.2.74-.57,1.63-.88,2.55-1.01.93-.16,1.16-1.61.39-2.08-.83.1-1.58.51-1.98,1.51.4-1.01,1.15-1.41,1.98-1.51-.28-.2-.65-.26-1.02-.21-4.7.63-6.42,5.48-7.82,9.37.19.73.49,1.47.7,2.31-.21-.83-.51-1.58-.7-2.31-.03.07-.06.15-.09.22-.27-.11-.55-.23-.82-.34-.8-.31-1.7.61-1.47,1.39-.28,1.16-.55,2.32-.8,3.48-1.77,1.17-5.44,1.79-4.8,4.67.18.77.68,1.41.93,2.15.31.95.05,2.7-.18,3.44-.4.79.1,1.82,1.05,1.77,1.26.68,2.72.99,4.05,1.53-.89.65-1.91,1.14-3,1.3-.45.04-.89.05-1.35,0-.74-.07-1.38.82-1.13,1.5-.27.15-.49.41-.6.73-1.14,2.79-1.75,6.43.7,8.73,2.8,2.34,6.86,2.16,10.27,2.91.72,2.73,1,5.56,1.49,8.34l1.45-.4-1.45.4c.61,1.32,2.56.67,2.24-.78-.5-2.86-.66-5.87-1.58-8.64-.57-1.48-2.55-1.39-3.88-1.59-1.97-.3-3.97-.62-5.83-1.32-1.03-.37-1.75-1.27-1.98-2.33-.49-1.74.66-3.5.9-5.15,2.63.02,5.12-1.4,6.85-3.32.59-.71.36-1.67-.52-1.98-1.73-.62-3.46-1.23-5.2-1.85.53-2.1.07-4.13-.9-6,0,0-.02-.02-.04-.04,0,0,.01,0,.02-.01,0,0,0-.01,0-.01,0,0,0,0,0,0,0,0,0,0,0,.01.52-.51,1.24-.8,1.9-1.11-.51,1.6,1.73,2.39,2.25.8.14-.81.31-1.62.48-2.43.9-.79,1.59-1.77,2.15-2.83.43.18.86.36,1.28.53-1.52,0-1.53,2.37,0,2.37,1.16,0,1.44-1.36.84-2.02,2.16.9,4.32,1.8,6.48,2.69,1.14,2.16,2.99,4.22,5.16,5.33-.26,1.04.85,1.78,1.74,1.31-.07.03-.08.04-.08.03.62-.26,1.25-.46,1.91-.58.34-.05.83-.06,1.18.06.1.07.23.12.31.22,0,0,0-.01,0-.02,0,0,.02.04.04.05.1.1.08.1.04.08.13.17.16.34.21.54.07.29.02-.04,0-.05.2,1.44-.54,2.92-1.37,4.08-.25.34-.86.98-1.31,1.31.13-.11.14-.12.11-.09-.68.53-1.49.9-2.35,1.02.38-.07.03,0-.05,0-1.55.07-1.55,2.35,0,2.37,2.54-.2,4.73-1.83,6.04-3.97.96,1.21,2.51,2.11,3.52,3.07,1.85,1.76,2.29,4.77,2.14,7.22-.45,4.2-.02,8.59-.16,12.85,0,1.53,2.37,1.53,2.37,0,0-4.04,0-8.07,0-12.11.22-.42.16-.92.19-1.38.31,0,.62-.1.81-.34,2.18-2.75,5.03-4.9,7.67-7.17,4.38-3.77,6.97-5.97,5.9-12.2ZM184.75,83.78c.06.03.07.05,0,0h0ZM175.94,59.02s-.05-.08.01-.03c0,.01,0,.02-.01.03ZM175.96,59.01s0,0,0-.01c0,0,0,0,0,.01,0,0,0,0,0,0ZM201.78,63.75s0,.01,0,.01c0,0,0,0,0-.01Z"/><path class="cls-8" d="M208.39,95.12l-.94.15.94-.15c-.25-.53-.81-.72-1.38-.63-3.31.5-6.64.93-9.99,1.01-5.03.16-10.02-.67-14.94-1.68l-1.3,2.08,1.3-2.08c-.63-.14-1.3.18-1.48.83-4.72,3.08-9.37,17.92-10.42,23.66-.43,2.14-.76,4.31-.91,6.48-.04.56.44,1.05.97,1.16l.1-5.03-.1,5.03c.74.15,1.36-.45,1.4-1.16.26-3.8,1.1-7.6,2.15-11.3,1.7-6.13,4.25-12.21,8.02-17.31,6.36,1.35,12.89,2.17,19.38,1.43,2.15-.21,4.3-.51,6.44-.83.71-.11,1.06-1.06.75-1.66Z"/><path class="cls-8" d="M188.73,48.27c-.77-.36-1.57-.54-2.42-.55-1.55.02-1.55,2.34,0,2.37.95-.01,1.86.43,2.43,1.18.19.28.42.52.75.61.28.08.66.04.91-.12,1.6-1.18-.52-2.92-1.68-3.5Z"/><path class="cls-8" d="M175.99,59.07s0-.01-.02-.05c0,0,0,0,0,0,0,.01.02.03.03.05Z"/><path class="cls-8" d="M201.57,63.4s.04.09.08.11c-.03-.04-.05-.08-.08-.11Z"/><path class="cls-8" d="M217.44,44.92c.14.56.32,1.08.51,1.58.29-.19.51-.5.53-.94.14-3.31-1.04-6.47-4.01-8.18-5.71-3.01-12.44-1.42-18.6-1.56-5.46-.14-12.54.13-15.29,5.75-.8,1.28-1.84,8.34.89,7.52-.02-.57.08-1.16.4-1.8-.32.64-.42,1.23-.4,1.8.62-.21.88-.82.77-1.44-.29-1.7-.26-3.26.36-4.82,2.19-4.66,8.12-4.77,12.69-4.65,2.85.09,5.71-.2,8.56-.25,3.75.04,8.36-.18,11.07,2.89.72.94,1.08,2.06,1.17,3.25.04.5.04.99.02,1.49-.05,1.08,1.13,1.39,1.84.94-.19-.5-.37-1.02-.51-1.58Z"/><path class="cls-8" d="M225.24,108.36c-6.82,1.48-12.9,5.58-16.92,11.27-.37.52-.09,1.32.43,1.62.59.35,1.25.1,1.62-.43,3.67-5.19,9.31-8.84,15.5-10.18,1.49-.32.86-2.61-.63-2.29Z"/><path class="cls-8" d="M235.05,110.34c-4.01-3.57-8.49-6.67-12.64-10.09-3.21-2.54-6.42-5.08-9.64-7.62-.56-.55-1.53-.68-1.99.08-.83.38-1.07,1.59-1.61,2.3l2.18-.35-2.18.35c-3.99,7.11-9.45,13.48-11.91,21.37-.46,1.7-2.5,8.48-1.63,9.66l.75-4.97-.75,4.97c.52.69,1.87.43,2.02-.47.69-4.61,1.78-9.23,3.8-13.37,3.05-6,7.31-11.29,10.46-17.24,6.37,5.04,12.73,10.07,19.12,15.08.94.74,2.02,1.42,2.67,2.44,2.04,3.52.33,7.58.04,11.37-1.34,8.98-2.63,17.99-4.35,26.9,0-.02.02-.03.03-.05-.03.06-.05.13-.07.2,0-.01,0-.03,0-.04-.02.08-.03.16-.04.25h2.43c1.48-7.79,2.63-15.64,3.82-23.48.4-2.68.78-5.37,1.13-8.06.59-3.15.58-6.69-1.67-9.23ZM231.62,150.92c-.01-.06-.03-.12-.05-.17.14.23.07.27.05.17Z"/><path class="cls-8" d="M229.33,151.1c-.18,1.8,2.37,1.69,2.43,0h-2.43Z"/><path class="cls-8" d="M229.41,150.75s-.03.07-.04.11c.01-.03.03-.07.04-.11Z"/><path class="cls-8" d="M170.19,132.99c.5-.5.41-1.25-.05-1.73l-.03,1.8s.06-.04.08-.06Z"/><path class="cls-8" d="M210.87,125.18c-1.28-.28-1.56.94-1.67,1.93-1.16-.74-2.55-.35-3.81-.15-3.67.38-7.59.8-10.41,3.43l-.22,1.49.22-1.49c-1.39,1.07-2.73,2.19-4.14,3.23-.03-.08-.06-.17-.1-.24.32-.82-.58-1.8-1.44-1.5-1.19.41-2.45.56-3.7.7-5.14.52-10.32.57-15.49.66v.64s0-.64,0-.64c-.11,0-.23,0-.34,0,.13-.05.24-.12.35-.2l.03-1.8c-2.44-2.83-4.88-5.66-7.32-8.49-1.45-2.27-4.22-3.55-6.12-1.01-2.37-3.23-7.45-.73-5.98,3.06-1.73.89-2.2,3.29-1.1,4.82-1.5.89-1.88,3.12-.73,4.45-.59.16-.93.87-.77,1.44.28,1.04,1.39.88,2.21.7,11.5-1.02,24.84-.06,36.9-1.44-2.65,4.26-3.56,11.39-1.53,16.03-1.02.11-2.03.2-3.05.27h13.27c3.33-.46,6.62-1.13,9.86-2.02-.05.66-.34,1.38-.12,2.02h2.18c1.03-6.62,1.97-13.27,3.06-19.89.25-1.53.48-3.06.8-4.57.13-.63-.18-1.28-.83-1.46ZM150.59,132.06c0,.19-.02.11,0,0h0ZM151.55,133.72c-.31-.49-.75-.87-.96-1.41,0-.22.02-.45.21-.59-.02,0-.03.02-.05.03.04,0,.1-.09.13-.1,0,0,0,0,0,0,.18-.07.37-.12.56-.04-.01,0-.02-.01-.04-.03.02.03.16.06.14.08.06.02.12.11.16.12.46.61.92,1.23,1.38,1.85-.51.03-1.01.06-1.52.1ZM155.91,133.51s-.08,0-.12,0c-.5-1.14-1.5-2.06-2.18-3.11-.42-.55-1.02-.94-1.67-1.11.01-.32-.1-.65-.33-.92-.74-.82.42-2.14,1.32-1.45,2.01,2.1,3.92,4.36,5.89,6.51-.97.02-1.93.04-2.9.08ZM161.71,133.37c-1.04-1.82-2.83-3.22-4.15-4.87-1.38-1.34-2.46-3.34-4.34-3.99-1.11-1.15.39-2.7,1.46-1.42,3.08,3.41,6.14,6.84,9.22,10.25-.73.01-1.46.02-2.19.03ZM165.91,133.3c.25-.41.28-.96-.13-1.42-2.29-2.55-4.58-5.09-6.87-7.64-.47-.52-.53-1.41.37-1.53,1.02.27,1.61,1.63,2.38,2.33,2.47,2.68,4.64,5.74,7.27,8.22-1.01.01-2.01.03-3.02.04ZM207.77,135.89c-.55,3.58-1.09,7.15-1.63,10.73-6.04,1.53-12.2,2.59-18.43,2.87-1.49-3.91-.61-8.3.76-12.16,2.64.36,8.12-6.25,11.01-6.92,2.13-.82,4.4-.85,6.64-1.18,1.27-.32,2.57-.42,2.47,1.34-.28,1.77-.54,3.55-.82,5.32Z"/><path class="cls-8" d="M205.66,151.1c.27.98,1.86.97,2.18,0h-2.18Z"/><path class="cls-8" d="M171.98,95.9l5.7-1.59c-.26-.29-.65-.46-1.14-.32-4.08,1.11-8.1,2.44-12.03,3.98-5.3,1.71-9.46,4.83-12.03,9.83-4.33,9.73-8.13,19.68-12.28,29.48-.85,1.93-1.59,3.92-2.59,5.77-.42.49-.46,1.21.02,1.69l1.14-2.56-1.14,2.56c1.51,1.27,2.41-1.12,2.86-2.23.65-1.43,1.26-2.88,1.88-4.34,3.36-7.98,6.55-16.02,9.9-24.01,1.47-3.49,2.75-7.18,5.65-9.78,4.32-4.03,10.75-5.34,16.21-7.25,1.34-.59,5.05-.62,3.56-2.84l-5.7,1.59ZM140.15,137.41s0-.01,0-.02c0,0,0,.01,0,.02Z"/><polygon class="cls-8" points="150.87 131.64 150.87 131.64 150.87 131.64 150.87 131.64 150.87 131.64"/><path class="cls-8" d="M150.8,131.71s0,0,0,0c.02,0,.03-.02.04-.03-.01,0-.02.01-.03.02Z"/><path class="cls-8" d="M150.83,131.69s.05-.04.07-.05c-.01,0-.02,0-.03,0,0,0-.01.02-.04.05Z"/><path class="cls-8" d="M150.91,131.63c.12-.02.14-.04.1-.04-.03.01-.07.02-.1.04Z"/><path class="cls-8" d="M151.53,131.65s-.07-.04-.11-.05c.07.05.11.06.11.05Z"/><path class="cls-7" d="M73.84,134.29s-.02-.02-.03-.02c0,0,.01,0,.02.01,0,0-.02-.02-.03-.04,0,.06.16.15.04.05Z"/><path class="cls-7" d="M73.83,134.28s.01.01.02.01c0,0-.02-.01-.02-.02,0,0,0,0,0,0Z"/><path class="cls-7" d="M104.28,80.88s.01-.01.04-.04c-.02.02-.04.03-.04.04h0Z"/><path class="cls-7" d="M104.54,46.74c.07.11.08.09,0,0h0Z"/><path class="cls-2" d="M106.52,77.96c.28-.7.49-1.42.59-2.17.02-.15,0,.05-.01.1.09-.81.1-1.64-.15-2.42-.04-.11-.23-.51-.05-.17-.15-.34-.35-.64-.64-.87.26.26.05.04-.06-.02-.09-.05-.33-.1-.1-.04.02,0,.03,0,.05,0-.12-.01-.25-.09-.37-.11-.27,0-.03,0,.06,0-.18-.02-.39,0-.57-.01-.31.07-.62.15-.92.27-.96.37-2.1,1.68-3.03.45.22,2.4.33,4.83.07,7.24,1-.25,2.08.02,2.86.67,1-.74,1.73-1.8,2.25-2.92Z"/><polygon class="cls-7" points="78.18 72.31 78.18 72.31 78.18 72.3 78.18 72.3 78.18 72.31"/><path class="cls-7" d="M78.18,72.31s-.07.05,0,0c0,0,0,0,0,0Z"/><path class="cls-2" d="M115.9,91.1c-1.96-6.46-6.94-12.54-4.85-19.63.14-.46.46-.72.82-.81.06-.72.13-1.43.2-2.14-.86.08-1.8-.82-1.23-1.8.68-1.18,1.06-2.41,1.3-3.86.68-4.54-.95-10.77-6.05-11.88-1.53-.34-.88-2.68.65-2.34.2.05.41.1.61.16-.19-.34-.38-.67-.58-.98-.61.45-1.63.37-1.91-.55-.31-.58-.77-1.04-1.27-1.45-3.16-2.32-7.07-3.65-10.96-4.02-10.56-.82-23.38,7.62-22.15,19.2.13.74-.3,1.52-1.12,1.53.13.47.27.94.43,1.4.17-1.21.56-2.62,2.02-1.89.13-.34.28-.68.42-1.01-.74-7.36,6.51-12.64,13.08-13.87.9-.2,1.49.54,1.51,1.24.63-.16,1.27-.24,1.92-.24.91-1.2,2.74,0,2.03,1.33-2.15,4.9-.67,11,3.26,14.55.38.34.45.75.34,1.11,1.18.78,2.45,1.34,3.8,1.24-.01-.1-.02-.2-.04-.3-3.05-3.81-3.95-8.97-4.08-13.87-.04-1.57,2.39-1.56,2.43,0,.13,5.12,1.07,11.07,5.52,14.3,1.29.8.24,2.79-1.14,2.14.13,1.06.26,2.12.37,3.18,1.19-1.51,3.7-2.39,5.58-1.78,5.07,2.34,2.46,10.49-1.3,12.92.58,2.96-3.18,5.11-5.47,3.18-1.08,3.08-3.23,5.66-4.31,8.75-3.14,8.14-.16,13.67,8.61,14.92.74.13,1.09,1.12.75,1.73,1.01.07,2.04-.09,3.03-.29-4.06-1.52-5.62-6.94-3.17-10.46.37-.54,1.06-.79,1.66-.44.54.32.8,1.12.44,1.66-2.7,4.02,1.31,8.67,5.75,7.1-3.25-7.64,6.54-8.28,3.09-18Z"/><path class="cls-2" d="M94.36,65.12c-.23.76-1.27,1.31-2.05.61-4.82-4.35-6.26-11.73-3.57-17.6-.65,0-1.3.08-1.92.24.01.49-.24.96-.86,1.1-5.46,1.03-11.46,4.89-11.4,11.04.02,1.38-1.86,1.54-2.32.49-.15.34-.29.67-.42,1.01.43.24.74.71.59,1.33-1.11,6-3.14,12.27-1.62,18.35,3.31,10.91,12.58,11.1,20.95,5.35,1.32-.84,2.54,1.26,1.23,2.1-3.79,2.4-8.22,4.47-12.81,4.09-.05,3.61-.4,7.59-3.3,10.11-1.14,1.07-2.86-.65-1.72-1.72.92-.86,1.5-1.69,1.88-2.74l-1.64.31c.1.61-.3,1.15-.87,1.36-1.84.68-3.73,1.14-5.63,1.56l.76,1.91c.29.09.55.28.73.54,2.36,3.46,4.14,7.27,6.49,10.73.18.26.2.58.13.87,6.41-1.86,12.83-3.72,19.24-5.58.62-.18,1.09.11,1.33.55l1.14-.45c-9.57-4.03-6.9-15.34-2.38-22.27,1.98-3.32,2.82-7.04,2.85-10.88.03-3.75-.54-7.47-.97-11.18-1.35.1-2.62-.46-3.8-1.24ZM77.51,62.42c1.56,0,1.56,2.43,0,2.43s-1.56-2.43,0-2.43ZM77.97,69.61c1.7-1,2.33-3.19,3.04-4.96.49-1.52,2.74-.89,2.34.65-.95,2.89-2.26,5.68-5.17,7,.56,1.12,2.43,3.14.45,3.93-1.46.3-1.41-1.16-2.17-2.05-1.46-1.89-.47-3.7,1.5-4.57ZM84.13,81.09c-2.68,1.53-6.19,1.46-8.78-.25-.57-.37-.76-1.05-.44-1.66.65-1.05,1.67-.47,2.47.03.55.26,1.14.41,1.74.51,1.28.15,2.7-.06,3.78-.72,1.38-.77,2.59,1.28,1.23,2.1ZM88.94,68.15c-1.56,0-1.56-2.43,0-2.43s1.56,2.43,0,2.43Z"/><path class="cls-2" d="M68.02,85.3c-1.3,5.02-3.88,9.92-3.09,15.2,2.99-.68,6.03-1.23,8.91-2.3.66-.24,1.44.32,1.52.98l1.64-.31c.7-1.95.61-4.09.74-6.13-4.47-1.4-7.75-5.41-9.17-9.97-.29.47-.56.96-.81,1.45.24.26.37.63.26,1.08Z"/><path class="cls-7" d="M121.38,132.27c-.15-3.04-.34-6.1-.98-9.08-.82-3.82-2.45-7.32-5.03-10.28-.31-.35-.42-.82-.29-1.24-.38-.26-.74-.55-1.06-.88-.47.96-1.79.94-2.73,1.03.67.34,1.07,1.25.37,1.92-5.97,5.69-10.39,12.88-12.69,20.8-.44,1.5-2.78.86-2.34-.65,2.5-8.38,7.13-16.29,13.68-22.11-.74-.07-1.48-.26-2.17-.54-.99.2-2.02.36-3.03.29-.77,1.55-5.13-.36-6.45-.84l-1.14.45c.94,1.94-1.9,2.03-3.12,2.5-5.94,1.63-11.84,3.61-17.81,5.07-1.26,3.41-2.97,6.82-3.68,10.45-.15.64-.88,1.02-1.49.85-.65-.18-1-.86-.85-1.49.84-3.58,2.16-7.1,3.79-10.39.22-.45.76-.65,1.24-.58,0-.15,0-.29.04-.44-.36-.05-.69-.26-.91-.58-2.36-3.46-4.14-7.27-6.49-10.73-.59-.87.4-2.13,1.37-1.77l-.76-1.91c-3.38.95-7.08,1.05-10.21,2.67,4.38.61,4.2,2.15,4.52,6.07.72,6.46,1.44,12.93,2.16,19.39,2.19.44,4.38.87,6.57,1.3,1.21-1.86,3.66-1.47,5.39-.6,1.26.52,2.62.68,3.96.76,2.79.18,5.79.08,8.26,1.6,1.07.66,1.79,1.59,2.57,2.55,3.78,4.68,7.37,9.52,10.96,14.35.31.42.18,1.01-.14,1.4h19.03c-.11-6.45-.23-12.9-.53-19.35Z"/><path class="cls-7" d="M56.32,148.15c.15-.26.38-.43.64-.52-1.76-.35-3.51-.7-5.27-1.06.11.88.31,1.75.64,2.57.02.06.14.32,0,0,.36.82.73,1.64,1.06,2.47h3.88c-1.09-.78-1.66-2.24-.96-3.47Z"/><path class="cls-7" d="M83.08,149.99c-.56-.25-1.11-.12-1.68,0-3.03.58-6.07,1.19-9.12,1.63h12.59c-.6-.54-1.08-1.24-1.8-1.62Z"/><path class="cls-2" d="M101.08,151.62c-3.58-4.7-7.04-9.46-10.73-14.03-.62-.77-1.22-1.64-2.08-2.17-3.43-1.97-7.68-.63-11.31-1.99-.91-.28-1.92-1.08-2.87-.7-.02.01-.04.02-.06.04,0,0-.08.08-.16.15,0,.02-.06.11-.1.18,0,.05-.1.29-.12.37,0,.26,0,.55.14.78,0-.12.07.04.05.06,2.66,1.69,5.84,2.22,8.89,2.77.65.09,1,.92.85,1.49-.37,1.24-1.77.81-2.71.65l-.26.23c.77.39,1.1,1.6.13,2.13-.57.32-1.15.63-1.72.95-4,2.2-7.99,4.4-11.99,6.61-1.16.68-2.47-.07-3.7-.2-.03,0-.05.01-.08.01.16-.01-.04.04-.13.05-.03.03-.16.1-.05,0-.43.39-.58.81-.38,1.33,2.48.73,5.1-.39,7.56-.81,3.44-.53,6.86-1.14,10.27-1.82,2.82-.85,4.66.53,6.42,2.6.42.42.43.93.23,1.34h13.88Z"/><path class="cls-9" d="M77.17,138.33c-2.28-.79-5.75-1.52-5.94-4.44-1.88-.37-3.76-.75-5.64-1.12.5,4.51,1,9.03,1.5,13.54,4.14-2.28,8.28-4.57,12.42-6.85.4-.22.78-.19,1.09-.03l.26-.23c-1.25-.23-2.49-.52-3.7-.87Z"/><path class="cls-7" d="M74.45,132.62s.02,0,0,0h0Z"/><path class="cls-2" d="M58.2,147.88c.38.36.46.97.24,1.44.29.71,1.22.38,1.77.22.05-.41.17-.81.36-1.18-.79-.16-1.58-.32-2.37-.48Z"/><path class="cls-7" d="M73.66,133.85c-.01-.14-.01-.07,0,0h0Z"/><path class="cls-2" d="M17.12,141.11c-.15-.56-.39-1.08-.65-1.6-.65-.13-1.29-.26-1.94-.39.88.74,1.77,1.47,2.65,2.2-.02-.07-.04-.14-.06-.22Z"/><path class="cls-8" d="M107.18,46.56c-1.06-2.72-4.11-4.07-6.6-5.21-9.74-4.52-22.15-1.17-28.66,7.26-2.9,3.73-4.45,8.27-3.78,13.01.08.55.68.89,1.22.88-.29-1.07-.53-2.13-.77-3.08l.49.49-.49-.49c.24.95.48,2.01.77,3.08.83,0,1.25-.79,1.12-1.53-1.23-11.58,11.59-20.01,22.15-19.2,3.89.37,7.8,1.7,10.96,4.02.5.41.96.88,1.27,1.45.27.93,1.3,1,1.91.55-.46-.75-.96-1.44-1.77-1.97.8.54,1.31,1.22,1.77,1.97.35-.26.56-.69.42-1.24ZM104.54,46.74c.08.09.07.11,0,0h0Z"/><path class="cls-8" d="M88.94,68.15c1.56,0,1.56-2.43,0-2.43s-1.56,2.43,0,2.43Z"/><path class="cls-8" d="M77.51,64.85c1.56,0,1.56-2.43,0-2.43s-1.56,2.43,0,2.43Z"/><path class="cls-8" d="M91.73,87.04c-8.38,5.75-17.64,5.55-20.95-5.35-1.52-6.08.51-12.35,1.62-18.35.15-.62-.16-1.09-.59-1.33-.83,2.09-1.42,4.24-1.76,6.64.34-2.4.93-4.55,1.76-6.64-1.46-.72-1.85.69-2.02,1.89.22.64.46,1.26.75,1.83-.29-.58-.53-1.2-.75-1.83-1.07,6.18-3.17,12.69-1.22,18.88.31-.51.64-1.02.99-1.51-.35.49-.68,1-.99,1.51,1.42,4.56,4.7,8.57,9.17,9.97-.13,2.04-.04,4.19-.74,6.13l2.27-.43-2.27.43c-.38,1.05-.96,1.88-1.88,2.74-1.14,1.07.58,2.78,1.72,1.72,2.91-2.52,3.25-6.5,3.3-10.11,4.59.38,9.03-1.69,12.81-4.09,1.32-.84.1-2.94-1.23-2.1Z"/><path class="cls-8" d="M74.91,79.19c-.32.61-.13,1.29.44,1.66,2.59,1.71,6.1,1.78,8.78.25,1.36-.81.16-2.87-1.23-2.1-.63.38-1.23.56-2.01.7-1.13.17-2.28.03-3.33-.4-.88-.45-1.91-1.27-2.65-.11Z"/><path class="cls-8" d="M75.77,72.46c0,1.08,1.09,2.02,1.38,2.92.14.64.88,1.01,1.49.85,1.98-.8.11-2.81-.45-3.93,2.9-1.32,4.21-4.12,5.17-7,.4-1.53-1.85-2.17-2.34-.65-.52,1.41-1.09,2.91-2,4.08-1.11,1.34-3.41,1.58-3.24,3.73ZM78.18,72.31s0,0,0,0c0,0,0,0,0,0,0,0,0,0,0,0,0,0,0,0,0,0ZM78.18,72.31s0,0,0,0c-.07.05-.05.03,0,0Z"/><path class="cls-8" d="M124.14,141.93c-.48-9.74.48-20.63-5.61-28.89.52.09,1.05.14,1.58.15,1.56.02,1.56-2.41,0-2.43-2.39-.03-4.84-1.15-5.44-3.65-.58-2.4,1.41-4.2,2.67-6.1,6.25-9.76-6.59-18.92-3.94-28.89.31-1.04-.71-1.66-1.52-1.46-.19,2.12-.33,4.25-.08,6.24-.25-2-.11-4.12.08-6.24-.36.09-.68.35-.82.81-3.45,10.03,10.14,19.57,3.79,28.88-2.05,2.4-3.67,5.7-2.03,8.76-4.44,1.56-8.45-3.08-5.75-7.1.37-.54.1-1.35-.44-1.66-.6-.35-1.29-.11-1.66.44-2.45,3.53-.89,8.95,3.17,10.46.59-.12,1.16-.25,1.71-.36-.55.11-1.12.24-1.71.36.69.28,1.43.47,2.17.54-6.55,5.82-11.19,13.74-13.68,22.11-.44,1.5,1.9,2.14,2.34.65,2.3-7.92,6.72-15.12,12.69-20.8.7-.67.31-1.59-.37-1.92.93-.1,2.26-.07,2.73-1.03.32.33.68.62,1.06.88-.13.42-.02.89.29,1.24,2.58,2.96,4.21,6.46,5.03,10.28,1.63,9.36,1.17,18.96,1.52,28.43h2.43c-.05-3.23-.12-6.46-.2-9.69Z"/><path class="cls-8" d="M73.83,134.28s.02.01.02.02c.01-.02-.05-.18-.05-.06,0,.01.02.03.03.04Z"/><path class="cls-8" d="M73.81,134.27s.01.01.02.02c0,0-.01-.01-.02-.02Z"/><path class="cls-8" d="M73.84,134.29s0,0,0,0c0,0,0,0,0,0Z"/><path class="cls-8" d="M50.91,151.87s.08.18.08.18c.58,1.04.55,3.26,2.23,2.91,1.59-.53.56-2.29.18-3.34h-2.6c.04.08.08.17.11.25Z"/><path class="cls-8" d="M85.25,152c.69.69,1.61.29,1.94-.38h-2.32c.13.13.25.25.38.38Z"/><path class="cls-8" d="M57.46,151.74c1.05.64,2.29.48,3.42.12,2.93,2.67,8.01.03,11.4-.25h-15.01c.06.04.12.09.19.12Z"/><path class="cls-8" d="M101.08,151.62c.47.52,1.34.6,1.81,0h-1.81Z"/><path class="cls-8" d="M103.02,150.22c-3.59-4.83-7.18-9.67-10.96-14.35-.78-.96-1.5-1.89-2.57-2.55-2.47-1.52-5.47-1.42-8.26-1.6-1.34-.08-2.71-.25-3.96-.76-1.72-.87-4.18-1.27-5.39.6-2.19-.43-4.38-.87-6.57-1.3-.72-6.47-1.44-12.93-2.15-19.39-.34-3.95-.11-5.44-4.52-6.07,3.13-1.62,6.83-1.72,10.21-2.67l-.53-1.34.53,1.34c1.9-.43,3.8-.89,5.63-1.56.57-.21.97-.75.87-1.36l-2.27.43,2.27-.43c-.08-.66-.86-1.22-1.52-.98-2.88,1.07-5.92,1.62-8.91,2.3.07-.2.1-.43.04-.69-.52-2.38.06-4.85.74-7.13.28-1.64,3.08-7.53,2.04-8.46-1.36,2.62-2.22,5.41-2.57,8.21.35-2.8,1.21-5.59,2.57-8.21-.58-.63-1.82-.64-2.08.43-1.21,5.26-4.61,10.81-2.82,16.29-1.7.4-6.56,1.12-6.63,3.33-12.94-2.73-25.88-5.45-38.82-8.18-3.28-.69-6.56-1.42-9.84-2.07-1.59-.31-3.29.46-3.65,2.17-.09,2.25.46,4.5.62,6.76,1.25,11.06,2.5,22.12,3.75,33.18-.03,2.38,1.54,1.94,3.3,2.4-.13,1.39,1.12,2.25,2.08,3.01,1.27,1.06,2.55,2.12,3.82,3.18.35.29.83.42,1.26.29,1.06,1.4,3.28,1.13,4.66,1.8,2.79,1.45,5.97,2.57,9.15,2.47,1.19.31,2.33,1.42,3.2,2.34h3.18c-2.36-2.95-4.31-5.06-8.33-4.86-3.37-.49-6.54-2.64-9.73-3.08-.23-.09-.15-.05-.27-.21-.05-.06-.05-.05-.03-.03-1.02-1.81-1.25-4.1-2.36-5.92-.94-2.11-1.92-4.26-2.47-6.5-.04-.21-.06-.55,0-.81,0-.03.1-.28.13-.32.08-.09.19-.13.28-.15.87.07,1.34,1.08,1.62,1.81,1.35,3.32,2.65,6.66,3.94,10,.57,1.47,2.57.9,2.34-.65-.47-3.16-.97-6.56-1.4-9.68-.02-1.02-.72-2.81.1-3.62-.02,0-.03.01-.03.01,0,0,0,0,0,0,0,0,.11-.05.13-.06-.01,0-.02.01-.03.02,0,0,.02,0,.03,0,.3.02-.15-.02.07-.02.06,0,.22.02.24.01.13.02.26.1.38.15.03.04.19.24.19.23.03.06.08.13.09.15.97,4.93,1.49,9.96,2.39,14.91.44,1.52,2.69.92,2.34-.65-.45-3.2-1.13-6.37-1.34-9.6-.06-.72-.12-1.55.74-1.47.2.05.4.12.56.24.67.56.62,1.86.82,2.7.35,2.87.74,5.74,1.16,8.61.2,1.34,2.54,1.04,2.38-.32-.32-2.84-.73-5.68-1.12-8.51-.01-.26.07-.56.23-.78.03-.02.13-.1.1-.09.2-.16.43-.08.61.05.04.05.22.26.24.27.85,1.44.83,3.26,1.22,4.87.43,1.34.03,3.37,1.56,4.03,2.35,1.1,4.85,1.78,7.28,2.67.92.32,1.87.93,2.27,1.88.86,1.01,2.57-.02,2.04-1.24.64.13,1.29.26,1.93.39.15,1.95.71,3.79,1.58,5.54h2.6c-.33-.83-.7-1.64-1.06-2.47.06.14.07.17.06.15-.36-.82-.59-1.8-.71-2.72,1.76.35,3.51.7,5.27,1.06-1.61.77-.96,3.18.31,3.99,1.88-.07,16.06.27,17.52-.4,2.21-.38,4.41-.81,6.61-1.24,1.59-.58,2.47.61,3.47,1.63h2.32c.21-.41.19-.92-.23-1.34-1.78-2.07-3.59-3.44-6.42-2.6-3.41.68-6.84,1.29-10.27,1.82-2.46.42-5.08,1.53-7.56.81-.2-.52-.05-.93.38-1.33-.11.1.01.04.05,0,.09-.01.29-.06.13-.05.03,0,.05,0,.08-.01,1.23.13,2.54.87,3.7.2,4-2.2,7.99-4.4,11.99-6.61.57-.32,1.15-.63,1.72-.95.97-.54.63-1.74-.13-2.13l-1.99,1.77,1.99-1.77c-.31-.16-.7-.18-1.09.03-4.14,2.28-8.28,4.57-12.42,6.85-.5-4.51-1-9.03-1.5-13.54,1.88.37,3.76.75,5.64,1.12.24,3.75,6.71,4.57,9.64,5.31l1.22-1.09-1.22,1.09c.94.16,2.35.59,2.71-.65.16-.57-.19-1.4-.85-1.49-3.04-.55-6.23-1.08-8.89-2.77,0,0,0,0,0,0,.12.09-.05,0-.04-.05-.15-.23-.14-.52-.14-.78.02-.08.11-.32.12-.37.05-.08.1-.16.1-.18.07-.07.17-.15.16-.15.02-.01.04-.02.06-.04.95-.37,1.96.42,2.87.7,3.62,1.36,7.88.02,11.31,1.99.85.52,1.45,1.4,2.08,2.17,3.69,4.57,7.15,9.33,10.73,14.03h1.81c.32-.39.45-.98.14-1.4ZM16.48,139.51c.3.58.55,1.18.71,1.81-.88-.74-1.77-1.46-2.65-2.2.65.13,1.29.26,1.94.39ZM32.15,133.1s.01,0,.04-.02c-.03.01-.05.02-.04.02ZM60.21,149.53c-.55.16-1.49.49-1.77-.22.22-.47.15-1.08-.24-1.44.79.16,1.58.32,2.37.48-.19.37-.31.76-.36,1.18ZM60.81,145.93c-7.95-1.88-16.28-2.49-23.86-5.64-.86-3.24-.65-11.17-5.92-9.31-.71-1.74-2.96-2.54-4.55-1.78-.06-2.9-2.74-5.38-5.41-3.35-1.56,1.35-1.11,3.52-.87,5.32-.72-1.76-1.66-3.66-3.81-3.83-1.95-.16-3.22,1.6-3.12,3.42.21,2.11,1.22,4.07,1.97,6.03-1.52-.3-3.03-.6-4.55-.94-1.07-9.48-2.15-18.96-3.22-28.44-.39-3.52-.81-7.04-1.19-10.56.04-.9,1.51-.31,2.05-.19,17.13,3.61,34.27,7.21,51.4,10.83.82.03.75.91.8,1.52,1.4,12.57,2.79,25.14,4.19,37.7-1.3-.26-2.6-.52-3.9-.78ZM73.66,133.85c-.01-.07-.01-.14,0,0h0ZM74.45,132.62s.02,0,.02,0c0,0,0,0-.02,0Z"/><path class="cls-8" d="M36.57,152.53c.61.71,1.29,1.99,2.4,1.35.92-.6.67-1.6-.04-2.27h-3.18c.28.3.56.6.82.91Z"/><path class="cls-8" d="M95.75,111.85l1.78-.7c-.24-.44-.71-.73-1.33-.55-6.41,1.86-12.83,3.72-19.24,5.58.07-.3.05-.61-.13-.87-2.36-3.46-4.14-7.27-6.49-10.73-.18-.26-.44-.46-.73-.54l2.7,6.79-2.7-6.79c-.97-.35-1.96.9-1.37,1.77,2.36,3.46,4.14,7.27,6.49,10.73.22.32.55.53.91.58-.04.14-.05.29-.04.44-.48-.07-1.02.13-1.24.58-1.62,3.29-2.95,6.82-3.79,10.39-.15.64.2,1.31.85,1.49.61.17,1.34-.21,1.49-.85.71-3.63,2.42-7.04,3.69-10.45,5.97-1.45,11.86-3.44,17.81-5.07,1.23-.47,4.06-.56,3.12-2.5l-1.78.7Z"/><path class="cls-9" d="M61.16,114.7c-.21-1.9-.42-3.79-.63-5.69-.06-.61.03-1.5-.8-1.52-9.59-2.03-19.19-4.03-28.78-6.06-7.54-1.59-15.08-3.18-22.63-4.77-.54-.11-2.01-.7-2.05.19,1.47,12.99,2.94,26,4.41,39,1.52.34,3.03.64,4.55.94-.75-1.96-1.75-3.92-1.97-6.03-.1-1.82,1.17-3.58,3.12-3.42,2.15.17,3.08,2.07,3.81,3.83-.23-1.8-.69-3.97.87-5.32,2.67-2.03,5.36.45,5.41,3.35,1.59-.76,3.84.04,4.55,1.78,5.27-1.86,5.06,6.06,5.92,9.31,3.3,1.49,6.79,2.3,10.34,2.92,5.81,1.16,11.62,2.33,17.42,3.49-1.19-10.67-2.37-21.34-3.56-32.02ZM33.7,126.41c-6.39.8-5.68-8.8.46-7.16,3.52,1.17,3.2,6.48-.46,7.16Z"/><path class="cls-8" d="M114.62,59.3c-.36-4.42-2.75-9.21-7.28-10.52.18.31.36.62.57.93-.21-.31-.39-.62-.57-.93-.2-.06-.4-.11-.61-.16-1.52-.34-2.17,2-.65,2.34,5.1,1.12,6.73,7.34,6.05,11.88-.23,1.45-.61,2.68-1.3,3.86-.57.98.37,1.88,1.23,1.8.12-1.28.21-2.54.21-3.75,0,1.21-.09,2.47-.21,3.75,2.17-.58,2.91-7.23,2.56-9.21Z"/><path class="cls-2" d="M50.2,150.3c-.58-1.37-.85-2.76-.99-4.23-.64-.13-1.29-.26-1.93-.39.53,1.23-1.18,2.26-2.04,1.24-.39-.95-1.35-1.56-2.27-1.88-2.43-.89-4.93-1.56-7.28-2.67-1.54-.66-1.13-2.68-1.56-4.03-.39-1.61-.37-3.43-1.22-4.87-.02-.01-.19-.22-.24-.27-.18-.13-.41-.21-.61-.05.03-.01-.07.06-.1.09-.16.21-.24.51-.23.78.4,2.83.81,5.67,1.12,8.51.16,1.36-2.19,1.66-2.38.32-.42-2.86-.81-5.73-1.16-8.61-.2-.85-.16-2.14-.82-2.7-.17-.13-.36-.2-.56-.24-.86-.08-.8.75-.74,1.47.21,3.23.89,6.4,1.34,9.6.35,1.55-1.89,2.17-2.34.65-.89-4.95-1.42-9.98-2.39-14.91-.02-.03-.06-.09-.09-.15,0,.01-.17-.2-.19-.23-.11-.04-.25-.13-.38-.15-.02,0-.19-.01-.24-.01-.22,0,.24.04-.07.02-.04,0-.09.04-.11.04-.82.8-.12,2.6-.1,3.62.42,3.13.92,6.52,1.4,9.68.23,1.54-1.77,2.12-2.34.65-1.29-3.34-2.59-6.68-3.94-10-.28-.73-.75-1.75-1.62-1.81-.09.02-.2.06-.28.15-.02.03-.13.29-.13.32-.06.25-.03.6,0,.81.55,2.24,1.53,4.39,2.47,6.5,1.12,1.82,1.35,4.11,2.36,5.92-.01-.02-.02-.03.03.03.12.15.04.11.27.21,3.19.44,6.36,2.6,9.73,3.08,4.02-.21,5.99,1.92,8.33,4.86h11.86c-.2-.44-.4-.87-.59-1.32Z"/><path class="cls-2" d="M39.78,151.62h-.85c.11.15.23.29.35.43l.51-.43Z"/><path class="cls-2" d="M22.7,127.63s0,0,0,0c.02,0,.06-.03.09-.05-.04.01-.09.04-.09.04Z"/><path class="cls-2" d="M22.84,127.56s-.03.01-.05.02c.02,0,.03-.01.05-.02Z"/><path class="cls-2" d="M32.19,133.09c-.06.02-.06.03,0,0h0Z"/><path class="cls-8" d="M22.79,127.58s-.05.02-.06.04c.02,0,.04-.02.08-.04,0,0-.01,0-.02,0Z"/><path class="cls-8" d="M107.12,75.79c0-.06,0-.1,0,0h0Z"/><path class="cls-8" d="M106.12,72.36c-.11-.04-.16-.02,0,0h0Z"/><path class="cls-8" d="M106.82,70.03c-1.88-.61-4.39.27-5.58,1.78-.11-1.06-.24-2.12-.37-3.18,1.38.64,2.43-1.33,1.14-2.14-4.45-3.23-5.39-9.19-5.52-14.3-.04-1.56-2.47-1.57-2.43,0,.13,4.9,1.02,10.06,4.08,13.87.01.1.02.2.04.3.64-.05,1.3-.24,1.98-.63-.68.39-1.34.58-1.98.63.43,3.71,1,7.43.97,11.18-.03,3.84-.88,7.56-2.85,10.88-4.51,6.93-7.19,18.26,2.38,22.27l2.62-1.04-2.62,1.04c1.31.48,5.67,2.39,6.45.84-1.04-.07-2.07-.38-3.03-1.14.95.76,1.98,1.07,3.03,1.14.34-.61-.01-1.6-.75-1.73-8.78-1.25-11.75-6.79-8.61-14.92,1.08-3.09,3.22-5.67,4.31-8.75,2.29,1.93,6.05-.22,5.47-3.18,3.76-2.43,6.37-10.58,1.3-12.92ZM101.37,84.07s.05.06.05.06c-.01,0-.03-.03-.05-.06ZM103.14,83.67c-.04.13-.07.2-.14.3.09-.08-.08.12-.09.15,0-.02.02-.03.03-.05-.04.04-.08.09-.13.13.02-.01.04-.02.06-.03-.04.02-.17.13-.17.11-.11.08-.24.11-.36.14.02,0,.05,0,.08,0-.04,0-.24.04-.21,0-.14,0-.27-.02-.4-.07.02.01.04.02.06.04-.02-.02-.27-.11-.16-.09-.15-.07-.28-.2-.37-.33-.06-.11-.15-.4-.03-.02-.07-.19-.13-.38-.11-.58,0,.02,0,.04-.02.07,0-.05.06-.33.04-.16.14-.78,1.24-1,1.72-.39,0-.02-.02-.03-.03-.05.02.04.11.14.11.17.06.1.09.21.12.32,0-.03,0-.06,0-.1,0,.08.03.15.01.22,0,0,0,0,0,0,0,.07,0,.14,0,.2ZM101.73,82.63s.09-.05.12-.05c0,0-.07.03-.12.05ZM103.14,83.64s0-.06,0-.08c0,.03,0,.05,0,.08ZM104.28,80.88h0s.02-.02.04-.04c-.03.03-.04.04-.04.04ZM107.13,75.68c0,.07-.02.14-.02.21,0-.04,0-.08.01-.1-.27,1.96-1.24,3.88-2.84,5.09-.78-.65-1.86-.91-2.86-.67.26-2.41.15-4.83-.07-7.24.93,1.23,2.07-.08,3.03-.45.29-.12.61-.2.92-.27.18,0,.39,0,.57.01-.03,0-.04,0-.06,0,.12.01.25.09.37.11-.02,0-.04,0-.05,0,.11,0,.47.37.15.06.29.23.49.54.64.87-.18-.35.01.05.05.17.23.71.24,1.47.17,2.21Z"/><path class="cls-8" d="M105.8,72.26c-.11-.01-.22,0,0,0h0Z"/><path class="cls-2" d="M34.25,122.6s0-.02,0-.03c0,.04,0,.07,0,.11,0,0,.02-.02,0-.08Z"/><path class="cls-2" d="M33.04,124.06c.08-.02.52-.09.66-.24-.04.01.25-.17.27-.24.18-.28.32-.55.28-.89-.08-1.48-2.32-1.64-2.63-.2-.05.18-.04.55.06.76.08.34.79.94,1.36.82Z"/><path class="cls-2" d="M33.78,123.76s-.05.03-.08.05c.02,0,.05-.02.08-.05Z"/><path class="cls-2" d="M31.62,122.48s-.02.06-.03.1c0-.04.02-.07.03-.1Z"/><path class="cls-2" d="M33.95,123.6s.01-.03.02-.04c-.01.01-.01.02-.02.04Z"/><path class="cls-2" d="M31.59,122.59s0,.06-.02.09c.01-.03.01-.06.02-.09Z"/><path class="cls-2" d="M33.12,124.05s0,0,.01,0c-.03,0-.06,0-.09,0,.02,0,.04,0,.08,0Z"/><path class="cls-2" d="M34,123.54c.11-.15-.01-.04-.03.03,0,0,.02-.02.03-.03Z"/><path class="cls-2" d="M33.78,123.76s.04-.03.06-.04c-.02.01-.04.02-.06.04Z"/><path class="cls-2" d="M32.36,123.95s.03.01.05.02c-.03-.04-.19-.08-.05-.02Z"/><path class="cls-2" d="M31.72,123.37s-.02-.08-.04-.12c.01.04.03.08.04.12Z"/><path class="cls-2" d="M32.46,124s-.03-.02-.05-.03c.02.01.04.02.05.03Z"/><path class="cls-2" d="M33.2,124.05s-.05,0-.07,0c.02,0,.05,0,.07,0Z"/><path class="cls-2" d="M34.24,122.49s0,.06,0,.09c0-.03,0-.06,0-.09Z"/><path class="cls-2" d="M31.68,123.25s0-.01,0-.02c0,0,0,0,0,.02Z"/><path class="cls-8" d="M34.16,119.25c-6.14-1.64-6.84,7.96-.46,7.16,3.66-.68,3.99-5.99.46-7.16ZM32.72,124.05c-.1-.02-.2-.05-.3-.08.01,0,.02.01.04.03-.02-.02-.21-.07-.15-.08-.27-.11-.48-.35-.61-.61,0,.02,0,.04.02.06-.09-.24-.17-.49-.13-.75,0,.02,0,.03-.01.05.15-1.51,2.41-1.62,2.67-.11,0-.02,0-.04,0-.07-.01.04.04.19,0,.2.02.28-.05.56-.22.79.07-.04-.07.11-.08.14,0-.01,0-.02.02-.03-.05.06-.11.12-.17.17.01,0,.02-.01.04-.02-.22.15-.42.27-.68.32.02,0,.03,0,.05,0-.17.01-.32.02-.48,0Z"/><path class="cls-8" d="M32.41,123.97s0,0,.01,0c-.05-.04-.09-.05-.11-.06.03.02.06.03.09.05Z"/><path class="cls-8" d="M33.04,124.06s.08,0,.11-.01c-.13,0-.16,0-.11.01Z"/><path class="cls-8" d="M33.97,123.57s.03-.07.06-.1c-.01.01-.04.05-.06.11,0,0,0,0,0,0Z"/><path class="cls-8" d="M34.25,122.68s0-.08-.01-.12c0,.07,0,.12.01.12Z"/><path class="cls-8" d="M31.62,122.48s-.03.09-.03.14c.03-.12.04-.15.03-.14Z"/><path class="cls-8" d="M31.67,123.24s.02.05.03.07c-.04-.15-.05-.13-.03-.07Z"/><path class="cls-8" d="M33.69,123.81s.07-.04.1-.07c-.12.06-.13.08-.1.07Z"/><path class="cls-2" d="M102.56,84.36s.09-.05.13-.08c.42-.24.59-.83.32-1.26-.65-1.04-2.28-.22-1.72.94-.12-.38-.03-.09.03.02.26.41.78.55,1.23.38Z"/><path class="cls-2" d="M102.41,84.43s-.07,0-.1,0c.04,0,.07,0,.1,0Z"/><path class="cls-2" d="M102.79,84.22s0,0,0,0c-.03.02-.07.04-.11.07,0,0,.05-.02.1-.07Z"/><path class="cls-2" d="M101.17,83.46s.02-.06.02-.09c0,.03-.01.06-.02.09Z"/><path class="cls-2" d="M101.86,84.41s-.04-.03-.07-.04c.02.01.05.02.07.04Z"/><path class="cls-2" d="M102.86,84.17s-.05.02-.07.04c.02-.01.04-.03.07-.04Z"/><path class="cls-2" d="M101.37,84.07s.03.05.05.06c0,0-.02-.03-.05-.06Z"/><path class="cls-2" d="M101.73,84.35s.04.01.06.02c-.04-.04-.2-.09-.06-.02Z"/><path class="cls-2" d="M102.29,84.44s0,0,.01,0c-.08,0-.19.02-.01,0Z"/><path class="cls-2" d="M102.91,84.13s.02-.04.03-.05c-.01.02-.02.03-.03.05Z"/><path class="cls-2" d="M102.97,84.04c.12-.16,0-.03-.03.04.01-.01.02-.02.03-.04Z"/><path class="cls-2" d="M103.13,83.25s0,.08,0,.11c0-.04,0-.07,0-.11Z"/><path class="cls-2" d="M103.14,83.48s0-.08,0-.11c0,.04,0,.08,0,.11Z"/><path class="cls-2" d="M102.91,82.86s.02.05.04.06c-.01-.02-.03-.04-.04-.06Z"/><path class="cls-2" d="M101.73,82.63c.06-.02.13-.05.12-.05-.03,0-.08.02-.12.05Z"/><path class="cls-2" d="M103.01,83.03s-.03-.07-.07-.11c.02.04.05.07.07.11Z"/><path class="cls-2" d="M103.16,83.6s0-.02,0-.03c0,.02,0,.05,0,.08,0-.02,0-.03.01-.04Z"/><path class="cls-2" d="M101.19,83.34c.04-.13,0-.13,0,.03,0,0,0-.02,0-.03Z"/><path class="cls-8" d="M101.79,84.37s0,0,0,0c-.04-.02-.08-.04-.09-.05.03.02.06.03.09.05Z"/><path class="cls-8" d="M102.3,84.43s.02,0,.03,0c-.08,0-.12,0-.13,0,.04,0,.07,0,.11,0Z"/><path class="cls-8" d="M102.69,84.29s.08-.05.11-.08c-.08.05-.11.07-.11.08Z"/><path class="cls-8" d="M101.21,83.3s-.02.06-.02.09c0-.04.02-.07.02-.09Z"/><path class="cls-8" d="M103.01,83.03s-.05-.09-.08-.12c.06.11.08.13.08.12Z"/><path class="cls-8" d="M103.14,83.37s0-.01,0-.02c0,.06,0,.1.01.12,0-.03,0-.07,0-.1Z"/><path class="cls-8" d="M102.94,84.07s.04-.07.06-.1c-.01.02-.04.05-.07.11,0,0,0,0,0,0Z"/><path class="cls-8" d="M94.03,64.01c-3.93-3.55-5.4-9.65-3.26-14.55.71-1.33-1.12-2.53-2.03-1.33.4,0,.8.04,1.21.12-.4-.08-.81-.12-1.21-.12-2.69,5.87-1.25,13.24,3.57,17.6.78.71,1.82.15,2.05-.61-1.06-.7-2.04-1.57-2.96-2.3.92.73,1.9,1.61,2.96,2.3.11-.36.04-.77-.34-1.11Z"/><path class="cls-8" d="M83.15,50.19c1.1-.82,2.35-1.49,3.66-1.83-.02-.71-.61-1.45-1.51-1.24-6.57,1.23-13.82,6.51-13.08,13.87.23-.53.47-1.05.73-1.57-.26.52-.5,1.05-.73,1.57.46,1.05,2.35.89,2.32-.49-.06-6.15,5.94-10.01,11.4-11.04.62-.14.88-.61.86-1.1-1.32.34-2.57,1.01-3.66,1.83Z"/><path class="cls-2" d="M203.38,20.77c-.18-.15-.34-.33-.47-.54-.13-.21-.26-.41-.38-.61-.27-.88-.43-1.78-.47-2.68s0-1.8.1-2.7c.05-.08.1-.15.16-.21s.12-.12.18-.17c.1-.04.21-.06.32-.06.1,0,.21.03.31.08l.28.27c-.03.81-.04,1.62-.02,2.43s.11,1.63.29,2.46l.61.83c.04.11.06.21.07.32.01.11-.01.22-.08.34l-.26.27c-.1.04-.21.05-.32.06-.1,0-.21-.03-.31-.08ZM210.58,20.27c-.08-.05-.15-.1-.22-.16-.07-.06-.13-.12-.18-.18.07-.56.07-1.12.02-1.68-.05-.56-.19-1.1-.41-1.64l-.22-.28c-.04-.1-.05-.21-.06-.32,0-.11.03-.21.08-.31l.26-.27c.1-.04.21-.05.32-.06.11,0,.22.03.34.09l.37.37.11.21.12.28c.19.6.33,1.2.41,1.8s.04,1.21-.14,1.83l-.26.27c-.08.04-.17.06-.26.06-.09,0-.18-.01-.27-.02Z"/><path class="cls-2" d="M217.26,26.17c-.14-.19-.25-.41-.33-.64-.08-.23-.15-.46-.22-.69-.05-.92.01-1.83.19-2.71.18-.88.43-1.75.75-2.6.07-.06.13-.12.2-.17.07-.05.14-.09.21-.12.11,0,.22,0,.32.02.1.02.19.08.28.15l.21.33c-.22.78-.43,1.56-.61,2.35-.18.79-.29,1.61-.32,2.46l.39.95c0,.11,0,.22,0,.33-.02.11-.07.21-.16.31l-.32.19c-.11,0-.22,0-.32-.02-.1-.02-.2-.08-.28-.15ZM224.37,27.42c-.06-.07-.12-.14-.17-.21s-.1-.15-.13-.22c.2-.53.34-1.07.42-1.62.08-.55.08-1.12,0-1.69l-.15-.33c0-.11,0-.22.02-.32.02-.1.08-.2.15-.28l.32-.19c.11,0,.22,0,.32.02.1.02.2.08.31.17l.27.45.05.23.05.3c.04.63.03,1.24-.03,1.85-.06.6-.26,1.18-.58,1.74l-.32.19c-.09.02-.18.02-.27-.01-.09-.03-.17-.06-.26-.08Z"/><path class="cls-2" d="M227.63,34.71l-.11-.36c.02-.14.08-.27.17-.4.1-.12.2-.25.3-.38l1.03-1-.05-.05-.07.02-.57-.06-.3-.26-.12-.37c.02-.11.05-.21.1-.31.05-.09.13-.18.24-.26l.36-.11.05.05.31-.07,1.52-.06,1.51-1.32-.05-.05c-.17-.08-.34-.16-.5-.23-.16-.07-.32-.19-.47-.34l-.11-.36c.02-.11.05-.21.1-.31.05-.09.12-.17.22-.23l.36-.11c.28.07.55.17.8.3.25.13.51.26.78.37.18-.17.36-.33.54-.47.18-.15.39-.24.63-.28.12,0,.22.04.32.09.09.05.17.12.23.22l.1.37c-.02.11-.05.21-.1.31-.05.09-.13.18-.24.26l-.29.23.05.05c.17.11.34.24.51.39.17.14.33.3.49.46l.16.55c0,.16-.04.3-.11.43-.07.13-.18.25-.32.36-.22.09-.46.17-.71.22-.25.06-.5.1-.76.13l.05.05c.45.18.89.4,1.3.67.41.27.8.6,1.15,1,.2.3.37.62.5.95.14.33.22.69.25,1.08l-.1.42.05.05c-.04.28-.13.55-.3.8-.16.25-.36.47-.6.67l-.83.44c.04.2.1.4.16.59.06.19.1.39.11.59-.02.11-.05.22-.09.32-.04.1-.12.19-.23.27l-.36.11c-.11-.02-.21-.05-.31-.1-.09-.05-.18-.13-.26-.24-.06-.19-.11-.38-.14-.58-.04-.2-.11-.38-.22-.56l-.07.02h-.74c-.32-.03-.62-.1-.9-.22-.28-.11-.53-.31-.75-.6-.14-.21-.24-.43-.3-.67-.06-.24-.09-.49-.09-.77.02-.17.06-.33.13-.47.06-.14.15-.28.27-.42.17-.11.35-.2.52-.27.17-.08.36-.13.54-.16h.14c.36.02.68.15.96.37.28.23.54.48.79.77l.39.74c.13-.09.26-.17.39-.22.13-.05.25-.14.35-.27l.15-.71c-.06-.25-.14-.49-.24-.72-.1-.23-.24-.44-.43-.63-.56-.51-1.19-.88-1.9-1.1s-1.43-.42-2.15-.59l-.74.62-1.08,1.04-.47.5-.36.11c-.11-.02-.21-.05-.31-.1s-.17-.12-.23-.22ZM232.76,37.3l.47.05.07-.07c-.04-.14-.13-.28-.25-.41-.12-.13-.25-.26-.37-.38l-.23-.1-.26.16c.03.13.06.25.1.37.04.12.11.22.22.3l.26.08ZM232.68,30.98l.02-.02,1.04-.22-.07-.07-.4-.27-.65.53v.05s.05,0,.05,0Z"/><path class="cls-2" d="M237.05,45.54l.05-.65c.04-.1.1-.2.16-.29.06-.09.14-.2.22-.32l.19-.07.41-.16.37-.02c.16.09.29.21.42.35.12.15.24.29.35.43.05.13.09.25.11.36s.02.23,0,.35c-.08.17-.2.32-.36.44s-.32.24-.48.36l-.37.02-.03-.06-.06.03c-.19-.1-.37-.2-.54-.3-.18-.1-.32-.27-.42-.49ZM240.25,44.28l-.11-.28c.02-.1.04-.19.06-.26.02-.07.08-.13.18-.19,1.16-.51,2.31-1.02,3.46-1.55,1.15-.52,2.28-1.01,3.4-1.45.1.02.2.06.29.11.09.06.16.13.22.23l.14.34c0,.1-.02.2-.05.27s-.09.15-.18.21c-1.07.46-2.18.94-3.33,1.45-1.15.51-2.32.99-3.51,1.46-.11-.03-.2-.07-.29-.12-.09-.05-.18-.13-.28-.23Z"/><path class="cls-2" d="M55.28,41.83c-.18.16-.38.28-.6.35-.22.07-.44.12-.68.14-.3,0-.57-.07-.83-.2-.25-.13-.48-.29-.69-.49-.15-.2-.28-.4-.39-.61-.11-.21-.18-.44-.22-.69v-.19c-.02-.38.06-.72.23-1.03.17-.31.4-.61.69-.88l-.9-.84-1-.84-.13-.35c.01-.11.04-.21.08-.31.04-.1.11-.18.2-.24l.35-.13c.25.06.48.17.67.33.19.17.4.33.61.5l.97.91c.26-.18.53-.36.8-.53s.57-.27.9-.3c.12,0,.22.03.32.07.1.04.18.11.24.2l.12.36c-.01.11-.04.21-.08.31-.04.1-.12.19-.23.27-.2.05-.4.13-.59.22-.19.09-.37.22-.52.38.28.29.52.58.74.87.21.29.36.63.45,1.01v.33c-.01.25-.06.49-.14.72-.08.23-.2.45-.37.66ZM54.47,40.42c-.02-.27-.11-.5-.27-.69-.16-.19-.32-.39-.5-.59l-.34.36-.2.46.05.04.04.4.27.39.43.17.42-.15.1-.41ZM48.36,41.33l-.36.14c-.11-.01-.21-.04-.31-.08-.1-.04-.18-.12-.27-.23l-.61-1.69-.09.1-.26.33-.35.13c-.11-.01-.21-.04-.31-.08s-.18-.11-.24-.2l-.13-.35c.05-.25.17-.5.34-.72.17-.23.33-.46.48-.68-.07-.22-.17-.43-.29-.63s-.2-.43-.24-.68c.01-.11.04-.21.08-.31.04-.1.11-.18.2-.24l.35-.13c.11.01.21.04.31.08.1.04.19.12.27.23l.16.29.07-.07c.1-.21.22-.42.35-.63.13-.21.3-.41.49-.59l.41-.12c.11.01.21.04.31.08s.18.11.24.2l.13.35c-.01.11-.04.21-.08.29-.04.08-.1.17-.16.26l-.23.2-.9,1.49c.17.44.34.88.5,1.34.16.46.3.92.41,1.39-.01.11-.04.21-.08.31-.04.1-.11.18-.2.24ZM53.24,33.49c-.09.07-.2.11-.32.12-.12.02-.24.03-.35.05l-1.08.18h-.14s-.49.09-.49.09c-.14-.01-.27-.03-.39-.07-.12-.04-.23-.11-.33-.24l-.13-.35c.01-.11.04-.21.08-.31.04-.1.11-.18.2-.24l.35-.13.05.05.54-.14h.14s.48-.08.48-.08l.05.05.47-.16h.14s.05.04.05.04l.05-.05c.16,0,.3.01.44.05.13.03.25.11.35.24l.13.35c-.01.11-.04.21-.08.31-.04.1-.11.18-.2.24Z"/><path class="cls-2" d="M65.54,31.45c-.21.13-.42.22-.65.26-.23.04-.46.04-.7,0-.23-.06-.43-.17-.6-.31s-.31-.32-.43-.54c-.09-.18-.15-.37-.18-.58-.03-.21-.02-.42.03-.63.08-.37.25-.69.51-.96.26-.27.57-.5.93-.68.14-.07.3-.11.46-.12.16-.01.33-.03.5-.06,0-.21-.05-.4-.14-.58-.09-.18-.2-.36-.34-.53l-.35-.17c-.28-.06-.54-.05-.79.04-.25.08-.49.21-.72.39-.31.22-.54.5-.7.83-.16.33-.31.66-.47,1v.07s-.08.53-.08.53l-.09.3c-.04.1-.09.21-.16.3-.07.1-.17.17-.29.23l-.37.04c-.1-.04-.2-.09-.28-.16s-.14-.15-.19-.26l.02-.65c.18-.75.33-1.51.47-2.29s.17-1.54.11-2.29l-.41.23-1.26.93-.37.04c-.1-.04-.2-.09-.28-.16s-.15-.16-.2-.27l-.04-.37c.2-.31.46-.58.8-.82.34-.23.67-.47,1-.7.16-.08.32-.14.49-.2.16-.05.34-.08.51-.09l.18.04c.2.06.36.17.48.34.12.17.24.34.36.53.05.28.08.57.08.86,0,.29,0,.59-.02.89.39-.3.79-.51,1.22-.61.42-.1.86-.11,1.31-.03l.19.11.06-.04c.31.12.58.31.79.58.22.27.41.56.59.87.05.2.1.41.16.61.05.2.09.41.11.6h.12s.04.06.04.06l.06-.04.15.1h.12c.12.03.22.08.29.17.07.09.14.18.2.27l.04.37c-.04.1-.09.2-.16.28s-.15.15-.26.19l-.37.04-.22-.1-.08.05-.09.17.04.06-.05.23c-.1.33-.24.63-.41.89-.17.26-.39.51-.64.72ZM65.25,29.71l.06-.28.03-.26c-.15-.03-.3,0-.43.08-.13.08-.26.17-.39.25l-.24.55.13.32c.09.02.18.02.26,0,.08-.01.16-.05.22-.12l.36-.55Z"/><path class="cls-2" d="M79.7,25.19c-.16,0-.31,0-.46,0-.14,0-.29-.05-.43-.12l-.17-.08c-.22-.16-.39-.36-.52-.59-.13-.23-.23-.48-.32-.73-.04-.25-.04-.48,0-.71.04-.23.12-.45.23-.68.18-.3.41-.53.7-.7.28-.17.61-.3.97-.4l-.29-.85-.14-.3-.06.02-1.92.77-.37-.05c-.09-.06-.17-.14-.23-.22-.06-.08-.1-.18-.12-.29l.05-.37c.29-.26.62-.46.99-.6.37-.14.75-.29,1.12-.44l-.02-.17-.4-.75.05-.37c.06-.09.14-.17.22-.23.08-.06.18-.1.29-.12l.37.05c.18.12.33.29.45.5.12.21.22.42.3.66.29-.05.58-.14.89-.27.3-.13.6-.17.9-.13.09.06.17.14.23.22.06.08.1.18.12.29l-.05.37c-.15.19-.35.33-.62.42-.27.09-.53.18-.78.27l-.17.02.08.22c.11.2.21.43.27.7s.19.46.37.56l.6.11c.12.08.22.16.31.25.09.09.15.21.18.36l-.05.37c-.06.09-.14.17-.22.23-.08.06-.18.1-.29.12l-.52-.07c.02.27.01.55-.03.83-.05.28-.1.56-.17.84-.15.26-.33.48-.55.66-.22.18-.48.31-.78.39ZM79.77,23.63c.08-.19.13-.38.16-.57.03-.19.01-.37-.05-.56l-.35.12-.38.34-.03.54.24.38.17-.02.24-.22ZM74.77,25.41l-.39-.04c-.35-.33-.63-.72-.85-1.19-.22-.47-.41-.94-.58-1.42-.16-.67-.36-1.35-.59-2.04-.23-.68-.32-1.37-.24-2.05.06-.09.14-.17.23-.24.09-.07.19-.11.3-.12l.37.05c.09.06.17.14.23.22.06.08.11.19.13.33.06.66.2,1.31.41,1.96.21.65.4,1.3.59,1.97.12.34.27.66.45.96.19.3.35.6.5.9l-.05.37c-.06.09-.14.17-.22.23-.08.06-.18.1-.29.12ZM78.9,17.09l-.47.06-1.42.49-.21.11c-.09,0-.18,0-.26,0-.08,0-.16-.02-.24-.04-.09-.06-.17-.14-.23-.22s-.1-.18-.12-.29l.05-.37c.06-.09.14-.17.24-.22.1-.06.2-.11.29-.17l1.61-.55c.15-.03.31-.05.47-.07.16-.02.31,0,.47.03.09.06.17.14.23.22.06.08.1.18.12.29l-.05.37c-.06.09-.13.16-.21.21-.08.05-.16.1-.26.16Z"/><path class="cls-2" d="M93.99,21.03c-.62.03-1.2-.06-1.73-.29-.53-.23-1.06-.49-1.58-.81-.22-.22-.4-.47-.53-.74-.13-.27-.22-.57-.25-.9.03-.36.11-.72.24-1.08.12-.36.28-.69.48-1-.35-.39-.62-.81-.82-1.27-.2-.45-.37-.92-.53-1.39l.14-.35c.08-.07.17-.13.27-.17.1-.04.2-.06.31-.04l.35.14c.23.31.42.66.56,1.02.14.37.32.72.53,1.06l.14.02c.33-.32.68-.6,1.06-.85.38-.25.8-.4,1.26-.46l.35.14c.07.08.13.17.18.27.04.1.06.2.04.31l-.14.35c-.43.2-.83.42-1.21.66-.38.25-.74.54-1.09.88-.22.29-.41.59-.56.9-.15.31-.23.64-.25.98l.35.54c.5.31,1.02.53,1.57.65.55.12,1.11.19,1.69.2.07.08.13.17.17.27.04.1.06.2.05.31l-.14.36c-.12.1-.26.17-.42.2-.15.04-.32.06-.5.08ZM97.37,14.44l-.35-.14-.29-.21c-.07-.08-.13-.17-.17-.27-.04-.1-.06-.2-.04-.32l.14-.35c.08-.07.17-.13.27-.18.1-.04.21-.06.35-.05l.49.19c.1.1.18.21.25.33.07.12.1.25.09.41l-.14.35c-.08.07-.17.13-.27.17-.1.04-.2.06-.31.04ZM96.05,15.57l-.35-.14c-.13-.19-.27-.38-.44-.56-.16-.19-.25-.41-.28-.68l.14-.35c.08-.07.17-.13.27-.17.1-.04.2-.06.31-.04l.35.14c.15.19.3.37.46.56.16.19.25.41.27.68l-.14.35c-.09.07-.19.13-.29.18-.1.04-.2.06-.31.05Z"/><path class="cls-2" d="M104.1,21.41l-.47-.44c-.05-.1-.09-.2-.12-.31s-.07-.23-.11-.37l.06-.19.13-.42.22-.3c.17-.06.35-.1.54-.1.19,0,.38,0,.56,0,.13.04.24.09.35.14.11.05.19.13.27.23.09.17.12.36.12.56,0,.2-.02.4-.03.6l-.22.3h-.07s-.01.06-.01.06c-.19.08-.38.16-.58.23-.19.07-.41.08-.64.02ZM105.13,18.12l-.29-.1c-.07-.08-.12-.15-.16-.21s-.05-.15-.04-.26c.33-1.22.66-2.44.98-3.66.32-1.22.66-2.41,1.01-3.56.08-.07.17-.12.27-.15.1-.04.21-.04.32-.03l.35.11c.08.07.14.14.18.21.04.07.06.17.05.28-.32,1.12-.64,2.29-.97,3.49-.33,1.21-.69,2.43-1.08,3.65-.09.07-.18.12-.28.15-.1.04-.21.06-.35.07Z"/></svg>